<svg width="16" height="18" viewBox="0 0 16 18" fill="none" xmlns="http://www.w3.org/2000/svg">
<path d="M15.8587 3.76622L8.10871 0.0248533C8.04 -0.00828444 7.96 -0.00828444 7.89132 0.0248533L0.141319 3.76622C0.0549073 3.80792 0 3.89544 0 3.99138V13.0776C0 13.1735 0.0549073 13.261 0.141319 13.3027L7.89129 17.0441C7.92562 17.0607 7.96283 17.069 8 17.069C8.03717 17.069 8.07434 17.0607 8.10871 17.0441L15.8587 13.3027C15.9451 13.261 16 13.1735 16 13.0776V3.99142C16 3.8954 15.9451 3.80796 15.8587 3.76622ZM8 0.527687L15.1749 3.99138L13.095 4.99545C13.0818 4.98541 13.0679 4.97615 13.0527 4.96878L5.92656 1.52865L8 0.527687ZM5.36188 1.81136L12.5263 5.27002L11.0589 5.97841L3.89749 2.52115L5.36188 1.81136ZM12.6939 5.74435V8.3629L11.3233 9.02459V6.40604L12.6939 5.74435ZM15.4999 12.9207L8.25003 16.4205V7.88967L9.97936 7.05482C10.1037 6.99478 10.1559 6.84533 10.0958 6.72095C10.0358 6.59663 9.88632 6.54442 9.76194 6.6045L8 7.45511L7.30671 7.1204C7.18232 7.06029 7.03287 7.1125 6.97283 7.23685C6.91279 7.3612 6.96493 7.51069 7.08928 7.57073L7.74997 7.88967V16.4205L0.500067 12.9206V4.38974L6.0208 7.05492C6.05584 7.07186 6.09288 7.07986 6.12932 7.07986C6.22226 7.07986 6.31154 7.02779 6.35465 6.93848C6.41469 6.81413 6.36255 6.66464 6.2382 6.6046L0.825143 3.99138L3.30897 2.79229L10.8198 6.41821C10.8209 6.41974 10.8221 6.42111 10.8232 6.42261V9.42297C10.8232 9.50902 10.8675 9.58899 10.9404 9.63477C10.9808 9.66017 11.027 9.67301 11.0733 9.67301C11.1104 9.67301 11.1476 9.66477 11.182 9.64814L13.0527 8.74505C13.1391 8.70334 13.194 8.61587 13.194 8.51989V5.50298L15.4999 4.38977V12.9207Z" fill="#616575"/>
</svg>
