<svg width="23" height="24" viewBox="0 0 23 24" fill="none" xmlns="http://www.w3.org/2000/svg">
<path d="M14.1631 10.3945L14.1631 10.3945L11.9782 11.4493V22.313L21.1937 17.8642V7.00055L18.4671 8.31682V12.1824C18.4671 12.3659 18.3621 12.5332 18.1968 12.613L15.7416 13.7982C15.7416 13.7983 15.7416 13.7983 15.7416 13.7983C15.6757 13.8301 15.6046 13.8458 15.5337 13.8458C15.4453 13.8458 15.3569 13.8213 15.2795 13.7727L15.2794 13.7727C15.1401 13.6852 15.0555 13.5322 15.0555 13.3677V9.52024L5.34303 4.83144L2.42803 6.23869L9.25285 9.53345L9.25286 9.53346C9.49066 9.64828 9.59038 9.93416 9.47555 10.172M14.1631 10.3945L9.34048 10.1067M14.1631 10.3945C14.4009 10.2797 14.5007 9.99389 14.3858 9.75603L14.3858 9.75601C14.271 9.51832 13.9852 9.41843 13.7473 9.53332C13.7473 9.53333 13.7473 9.53333 13.7473 9.53333L11.5 10.6183L10.6553 10.2105C10.6553 10.2105 10.6553 10.2105 10.6553 10.2104C10.4173 10.0955 10.1315 10.1954 10.0168 10.4331C9.90193 10.671 10.0017 10.9568 10.2395 11.0717L10.2395 11.0717L11.0218 11.4493V22.313L1.80634 17.8641V7.00051M14.1631 10.3945L1.80634 7.00051M9.47555 10.172L9.34048 10.1067M9.47555 10.172C9.47556 10.172 9.47556 10.172 9.47556 10.1719L9.34048 10.1067M9.47555 10.172C9.39301 10.343 9.22209 10.4423 9.04473 10.4423C8.97483 10.4423 8.90384 10.4269 8.83703 10.3946M9.34048 10.1067C9.2839 10.224 9.16672 10.2923 9.04473 10.2923C8.9969 10.2923 8.94829 10.2818 8.9023 10.2596L8.83709 10.3947L8.83703 10.3946M8.83703 10.3946L1.80634 7.00051M8.83703 10.3946L1.80634 7.00051M21.8798 5.8081L21.8797 5.80808L11.7079 0.897537L11.7078 0.897513C11.5765 0.834167 11.4235 0.834154 11.2922 0.897525L11.2921 0.897537L1.12028 5.80807C1.12028 5.80808 1.12027 5.80808 1.12027 5.80808C0.954987 5.88786 0.85 6.05522 0.85 6.23869V18.1643C0.85 18.3478 0.954991 18.5151 1.12028 18.5949L11.2921 23.5054L11.2921 23.5055C11.3578 23.5371 11.4289 23.553 11.5 23.553C11.5711 23.553 11.6422 23.5371 11.7078 23.5055L11.7079 23.5054L21.8797 18.5949C22.045 18.5151 22.15 18.3478 22.15 18.1643V6.23873C22.15 6.05511 22.0449 5.8879 21.8798 5.8081ZM18.1957 7.38587L9.12364 3.00636L11.5 1.85915L20.572 6.23869L18.1957 7.38587ZM15.5149 8.6801L6.45992 4.30874L8.0376 3.54404L17.0957 7.9169L15.5149 8.6801ZM16.0118 9.50208L17.5108 8.77844V11.8822L16.0118 12.6058V9.50208Z" fill="#616575" stroke="#616575" stroke-width="0.3"/>
</svg>
