<svg width="43" height="40" viewBox="0 0 43 40" fill="none" xmlns="http://www.w3.org/2000/svg">
<path d="M29.4754 26.0648C29.5906 25.8273 29.4903 25.5421 29.2526 25.4279L29.2526 25.4279L22.4292 22.1479L25.343 20.7473L35.0555 25.416V29.2463C35.0555 29.4107 35.1404 29.5632 35.2797 29.6503L35.2797 29.6503C35.3572 29.6987 35.4454 29.7231 35.5337 29.7231C35.6045 29.7231 35.6755 29.7074 35.7413 29.6758C35.7414 29.6758 35.7414 29.6758 35.7414 29.6758L38.1966 28.4956C38.3618 28.4162 38.4671 28.2494 38.4671 28.0661V24.2177L41.1937 22.9071V33.7231L31.9782 38.1528V27.3368L34.1629 26.2866L34.1629 26.2866L29.3405 25.9994M29.4754 26.0648L29.3405 25.9994M29.4754 26.0648C29.4754 26.0648 29.4755 26.0648 29.4755 26.0648L29.3405 25.9994M29.4754 26.0648C29.3927 26.2354 29.2217 26.3342 29.0447 26.3342C28.975 26.3342 28.9041 26.3189 28.8373 26.2868L28.9023 26.1516C28.9483 26.1737 28.9969 26.1842 29.0447 26.1842C29.1667 26.1842 29.2839 26.1161 29.3405 25.9994M41.8796 21.7185L41.8795 21.7184L31.7077 16.8289L31.7076 16.8289C31.5764 16.7659 31.4236 16.7659 31.2924 16.8289L31.2924 16.8289L21.1205 21.7184C21.1205 21.7184 21.1205 21.7184 21.1205 21.7184C20.9553 21.7978 20.85 21.9646 20.85 22.1479V34.0224C20.85 34.2057 20.9553 34.3725 21.1205 34.4519C21.1205 34.4519 21.1205 34.4519 21.1205 34.4519L31.2923 39.3414L31.2924 39.3414C31.3579 39.3729 31.429 39.3887 31.5 39.3887C31.571 39.3887 31.642 39.3729 31.7076 39.3414L31.7077 39.3414L41.8795 34.4519C41.8795 34.4519 41.8795 34.4519 41.8795 34.4519C42.0447 34.3725 42.15 34.2057 42.15 34.0224V22.1479C42.15 21.9645 42.0446 21.7979 41.8796 21.7185ZM41.8146 21.8534L41.8145 21.8536L41.8146 21.8534ZM21.8063 22.907L28.8373 26.2867L33.7475 25.4277L31.5 26.5081L30.6551 26.102C30.4176 25.9877 30.1319 26.0867 30.0169 26.3239C29.9017 26.5615 30.002 26.8466 30.2397 26.9609L30.2397 26.9609L31.0218 27.3368V38.1528L21.8063 33.723V22.907ZM38.1957 23.2896L29.1248 18.9294L31.5 17.7877L40.5708 22.1479L38.1957 23.2896ZM35.5149 24.5783L26.4611 20.2262L28.0376 19.4654L37.0945 23.8189L35.5149 24.5783ZM36.0118 25.3979L37.5108 24.6773V27.7666L36.0118 28.4871V25.3979Z" fill="#616575" stroke="#616575" stroke-width="0.3"/>
<path d="M16.4754 10.1332C16.5906 9.89562 16.4903 9.6105 16.2526 9.49622L16.2526 9.49622L9.42923 6.21625L12.343 4.81561L22.0555 9.48433V13.3147C22.0555 13.4791 22.1404 13.6315 22.2797 13.7187L22.2797 13.7187C22.3572 13.7671 22.4454 13.7914 22.5337 13.7914C22.6045 13.7914 22.6755 13.7758 22.7413 13.7441C22.7414 13.7441 22.7414 13.7441 22.7414 13.7441L25.1966 12.5639C25.3618 12.4845 25.4671 12.3178 25.4671 12.1345V8.28606L28.1937 6.97543V17.7914L18.9782 22.2211V11.4052L21.1629 10.355L21.1629 10.355L16.3405 10.0677M16.4754 10.1332L16.3405 10.0677M16.4754 10.1332C16.4754 10.1332 16.4755 10.1332 16.4755 10.1332L16.3405 10.0677M16.4754 10.1332C16.3927 10.3038 16.2217 10.4025 16.0447 10.4025C15.975 10.4025 15.9041 10.3872 15.8373 10.3551L15.9023 10.2199C15.9483 10.2421 15.9969 10.2525 16.0447 10.2525C16.1667 10.2525 16.2839 10.1845 16.3405 10.0677M28.8796 5.78682L28.8795 5.7868L18.7077 0.897288L18.7076 0.897264C18.5764 0.83425 18.4236 0.834237 18.2924 0.897276L18.2924 0.897288L8.12051 5.78679C8.1205 5.7868 8.1205 5.7868 8.1205 5.7868C7.95532 5.86618 7.85 6.03298 7.85 6.21625V18.0908C7.85 18.2741 7.95532 18.4409 8.1205 18.5202C8.1205 18.5202 8.1205 18.5203 8.12051 18.5203L18.2923 23.4098L18.2924 23.4098C18.3579 23.4413 18.429 23.4571 18.5 23.4571C18.571 23.4571 18.642 23.4413 18.7076 23.4098L18.7077 23.4098L28.8795 18.5203C28.8795 18.5203 28.8795 18.5202 28.8795 18.5202C29.0447 18.4409 29.15 18.2741 29.15 18.0908V6.2163C29.15 6.03287 29.0446 5.86623 28.8796 5.78682ZM28.8146 5.92174L28.8145 5.92199L28.8146 5.92174ZM8.80634 6.97539L15.8373 10.3551L20.7475 9.4961L18.5 10.5765L17.6551 10.1703C17.4176 10.0561 17.1319 10.1551 17.0169 10.3922C16.9017 10.6298 17.002 10.9149 17.2397 11.0292L17.2397 11.0292L18.0218 11.4052V22.2211L8.80634 17.7913V6.97539ZM25.1957 7.35795L16.1248 2.99776L18.5 1.85605L27.5708 6.21626L25.1957 7.35795ZM22.5149 8.64663L13.4611 4.29457L15.0376 3.53372L24.0945 7.88728L22.5149 8.64663ZM23.0118 9.46624L24.5108 8.74571V11.835L23.0118 12.5555V9.46624Z" fill="#616575" stroke="#616575" stroke-width="0.3"/>
<path d="M9.47544 25.0692C9.59065 24.8317 9.49033 24.5465 9.25263 24.4323L9.25262 24.4323L2.42923 21.1523L5.34303 19.7516L15.0555 24.4204V28.2507C15.0555 28.4151 15.1404 28.5676 15.2797 28.6547L15.2797 28.6547C15.3572 28.7031 15.4454 28.7275 15.5337 28.7275C15.6045 28.7275 15.6755 28.7118 15.7413 28.6802C15.7414 28.6802 15.7414 28.6802 15.7414 28.6802L18.1966 27.5C18.3618 27.4206 18.4671 27.2538 18.4671 27.0705V23.2221L21.1937 21.9115V32.7275L11.9782 37.1572V26.3412L14.1629 25.291L14.1629 25.291L9.34048 25.0038M9.47544 25.0692L9.34048 25.0038M9.47544 25.0692C9.47545 25.0692 9.47545 25.0692 9.47545 25.0692L9.34048 25.0038M9.47544 25.0692C9.39274 25.2398 9.22174 25.3386 9.04473 25.3386C8.97495 25.3386 8.90407 25.3233 8.83732 25.2912L8.9023 25.156C8.94829 25.1781 8.9969 25.1886 9.04473 25.1886C9.16672 25.1886 9.2839 25.1205 9.34048 25.0038M21.8796 20.7229L21.8795 20.7228L11.7077 15.8333L11.7076 15.8333C11.5764 15.7703 11.4236 15.7703 11.2924 15.8333L11.2924 15.8333L1.12051 20.7228C1.1205 20.7228 1.1205 20.7228 1.1205 20.7228C0.955323 20.8022 0.85 20.969 0.85 21.1523V33.0268C0.85 33.2101 0.955322 33.3769 1.1205 33.4563C1.1205 33.4563 1.1205 33.4563 1.12051 33.4563L11.2923 38.3458L11.2924 38.3458C11.3579 38.3773 11.429 38.3931 11.5 38.3931C11.571 38.3931 11.642 38.3773 11.7076 38.3458L11.7077 38.3458L21.8795 33.4563C21.8795 33.4563 21.8795 33.4563 21.8795 33.4563C22.0447 33.3769 22.15 33.2101 22.15 33.0268V21.1523C22.15 20.9689 22.0446 20.8023 21.8796 20.7229ZM21.8146 20.8578L21.8145 20.858L21.8146 20.8578ZM1.80634 21.9114L8.83725 25.2911L13.7475 24.4321L11.5 25.5125L10.6551 25.1064C10.4176 24.9921 10.1319 25.0911 10.0169 25.3283C9.90167 25.5658 10.002 25.851 10.2397 25.9652L10.2397 25.9653L11.0218 26.3412V37.1572L1.80634 32.7274V21.9114ZM18.1957 22.294L9.12484 17.9338L11.5 16.7921L20.5708 21.1523L18.1957 22.294ZM15.5149 23.5827L6.46112 19.2306L8.0376 18.4698L17.0945 22.8233L15.5149 23.5827ZM16.0118 24.4023L17.5108 23.6817V26.771L16.0118 27.4915V24.4023Z" fill="#616575" stroke="#616575" stroke-width="0.3"/>
</svg>
