<svg width="14" height="18" viewBox="0 0 14 18" fill="none" xmlns="http://www.w3.org/2000/svg">
<path d="M12.7649 13.8503L12.654 13.7417V8.31101C12.654 5.796 11.0031 3.65962 8.72831 2.92759C9.13646 2.499 9.38779 1.91977 9.38779 1.28262V0H4.61228V1.28265C4.61228 1.91981 4.86364 2.499 5.27176 2.92762C2.99693 3.65962 1.34612 5.796 1.34612 8.31101V13.7417L1.23513 13.8503C0.450237 14.6183 0 15.6886 0 16.7868V17.2934H14V16.7868C14 15.6886 13.5499 14.6183 12.7649 13.8503ZM5.62556 1.01329H8.37451V1.28265C8.37451 2.04052 7.75792 2.65711 7.00005 2.65711C6.24218 2.65711 5.62556 2.04052 5.62556 1.28265V1.01329ZM1.05568 16.2801C1.16366 15.637 1.47423 15.034 1.94375 14.5745L2.35937 14.1679V8.31101C2.35937 5.75215 4.44113 3.67039 6.99998 3.67039C9.55883 3.67039 11.6406 5.75215 11.6406 8.31101V14.1679L12.0562 14.5745C12.5258 15.034 12.8363 15.637 12.9443 16.2801H1.05568Z" fill="#616575"/>
</svg>
