<svg width="41" height="38" viewBox="0 0 41 38" fill="none" xmlns="http://www.w3.org/2000/svg">
<path d="M26.3238 18.7968L26.1732 18.6494V11.2792C26.1732 7.86599 23.9328 4.96662 20.8455 3.97315C21.3994 3.3915 21.7405 2.6054 21.7405 1.7407V0H15.2595V1.74074C15.2595 2.60545 15.6006 3.3915 16.1545 3.9732C13.0672 4.96662 10.8268 7.86599 10.8268 11.2792V18.6494L10.6762 17.7968C9.61098 18.8391 15.9999 20.2917 15.9999 21.782V23.4696H24.9999V22.782C25 21.2917 27.389 19.8391 26.3238 18.7968ZM16.6346 1.37517H20.3653V1.74074C20.3653 2.76928 19.5286 3.60607 18.5 3.60607C17.4715 3.60607 16.6346 2.76928 16.6346 1.74074V1.37517ZM15.9999 22.0945C16.1465 21.2216 11.0007 19.4032 11.6379 18.7797L12.2019 19.2279V11.2792C12.2019 7.8065 15.0272 4.98125 18.4999 4.98125C21.9727 4.98125 24.7979 7.8065 24.7979 11.2792V19.2279L25.362 19.7797C25.9993 20.4033 25.6659 20.9093 25.8124 21.782L15.9999 22.0945Z" fill="#616575"/>
<path d="M39.3238 32.7968L39.1732 32.6494V25.2792C39.1732 21.866 36.9328 18.9666 33.8456 17.9732C34.3995 17.3915 34.7406 16.6054 34.7406 15.7407V14H28.2595V15.7407C28.2595 16.6055 28.6007 17.3915 29.1545 17.9732C26.0673 18.9666 23.8269 21.866 23.8269 25.2792V32.6494L23.6762 32.7968C22.611 33.8391 22 35.2917 22 36.782V37.4696H41V36.782C41 35.2917 40.3891 33.8391 39.3238 32.7968ZM29.6347 15.3752H33.3654V15.7407C33.3654 16.7693 32.5286 17.6061 31.5001 17.6061C30.4715 17.6061 29.6347 16.7693 29.6347 15.7407V15.3752ZM23.4327 36.0945C23.5792 35.2216 24.0007 34.4032 24.638 33.7797L25.202 33.2279V25.2792C25.202 21.8065 28.0272 18.9812 31.5 18.9812C34.9727 18.9812 37.798 21.8065 37.798 25.2792V33.2279L38.362 33.7797C38.9993 34.4033 39.4207 35.2217 39.5673 36.0945H23.4327Z" fill="#616575"/>
<path d="M17.3238 32.7968L17.1732 32.6494V25.2792C17.1732 21.866 14.9328 18.9666 11.8456 17.9732C12.3995 17.3915 12.7406 16.6054 12.7406 15.7407V14H6.25952V15.7407C6.25952 16.6055 6.60065 17.3915 7.15453 17.9732C4.06726 18.9666 1.82687 21.866 1.82687 25.2792V32.6494L1.67625 32.7968C0.611036 33.8391 0 35.2917 0 36.782V37.4696H19V36.782C19 35.2917 18.3891 33.8391 17.3238 32.7968ZM7.63469 15.3752H11.3654V15.7407C11.3654 16.7693 10.5286 17.6061 9.50007 17.6061C8.47153 17.6061 7.63469 16.7693 7.63469 15.7407V15.3752ZM1.4327 36.0945C1.57925 35.2216 2.00074 34.4032 2.63795 33.7797L3.202 33.2279V25.2792C3.202 21.8065 6.02725 18.9812 9.49998 18.9812C12.9727 18.9812 15.798 21.8065 15.798 25.2792V33.2279L16.362 33.7797C16.9993 34.4033 17.4207 35.2217 17.5673 36.0945H1.4327Z" fill="#616575"/>
</svg>
