<svg width="50" height="47" viewBox="0 0 50 47" fill="none" xmlns="http://www.w3.org/2000/svg">
<path fill-rule="evenodd" clip-rule="evenodd" d="M37.2282 2.09484C37.2337 2.09249 37.3325 2.30941 42.6664 13.1719C43.9894 15.8663 42.4264 18.9864 39.5504 19.7515V31.0239C39.5504 33.0443 37.8464 34.6881 35.7519 34.6881H23.3437V34.7242H19.7986V34.6881H7.39032C5.29585 34.6881 3.59187 33.0443 3.59187 31.0239V19.7514C0.717546 18.9868 -0.847834 15.8678 0.475965 13.1719C5.80703 2.31503 5.90866 2.09245 5.91414 2.0948C5.9144 2.09491 5.91444 2.09554 5.91483 2.09554C6.53997 0.822581 7.88741 0 9.34761 0H33.7947C35.2549 0 36.6024 0.822581 37.2275 2.09554C37.2279 2.09554 37.2279 2.09495 37.2282 2.09484ZM26.5073 3.41996H23.3438L23.3439 13.6754C23.3439 15.2344 24.6585 16.5026 26.2746 16.5026C28.1976 16.5026 29.5977 14.7484 29.1087 12.9559L26.5073 3.41996ZM14.5468 15.4016C16.2436 17.525 19.7986 16.3738 19.7986 13.6755V3.41996H16.6351L14.0336 12.956C13.8006 13.8105 13.9876 14.7018 14.5468 15.4016ZM9.11957 3.55901C9.12248 3.56052 8.96188 3.87911 3.68 14.6359C3.25423 15.5029 3.90942 16.5027 4.90453 16.5026H7.14105C8.47127 16.5026 9.63671 15.6359 9.97528 14.3949L12.9692 3.41996H9.3477C9.25037 3.41996 9.16047 3.47484 9.11878 3.55969C9.11909 3.55938 9.11946 3.55896 9.11957 3.55901ZM7.13709 31.0239C7.13709 31.1586 7.2507 31.2682 7.39032 31.2682H35.752C35.8916 31.2682 36.0053 31.1586 36.0053 31.0239C36.0053 20.3629 36.0091 19.9191 36.0032 19.919C36.0027 19.919 36.0021 19.9226 36.0014 19.9226C34.0936 19.9226 32.3399 19.1152 31.1389 17.7992C28.6214 20.5716 24.1875 20.6324 21.5712 17.9631C18.9566 20.6306 14.5224 20.5734 12.0034 17.7992C10.8024 19.1153 9.04872 19.9226 7.14097 19.9226C7.14026 19.9226 7.13965 19.919 7.13912 19.919C7.13326 19.9191 7.13709 20.3645 7.13709 31.0239ZM36.0013 16.5027H38.2378C39.2322 16.5027 39.8884 15.5035 39.4624 14.6359C34.1778 3.87382 34.02 3.5607 34.023 3.55917C34.0231 3.55912 34.0234 3.55942 34.0237 3.55969C33.982 3.47476 33.8921 3.41996 33.7947 3.41996H30.1732L33.1671 14.395C33.5056 15.636 34.6711 16.5027 36.0013 16.5027Z" fill="#00A3FF"/>
<circle cx="37.9987" cy="34.6321" r="12.0013" fill="#00A3FF"/>
<path d="M32.4425 36.043L34.1444 34.1354L34.1444 34.1354C34.3493 33.9056 34.3293 33.5531 34.0995 33.3481L34.0994 33.3481C33.9932 33.2534 33.8603 33.2066 33.7284 33.2066C33.5755 33.2066 33.4224 33.2695 33.3122 33.393M32.4425 36.043L34.0995 39.853C33.8697 40.0579 33.5172 40.038 33.3122 39.8081L31.0541 37.2772L31.0541 37.2771C30.71 36.8914 30.71 36.3096 31.0541 35.924L31.0541 35.9239L33.3122 33.393M32.4425 36.043H32.4462H32.4591H32.4722H32.4855H32.4989H32.5124H32.5261H32.54H32.554H32.5682H32.5825H32.597H32.6116H32.6264H32.6413H32.6564H32.6716H32.687H32.7025H32.7182H32.734H32.7499H32.766H32.7823H32.7986H32.8152H32.8318H32.8486H32.8655H32.8826H32.8998H32.9171H32.9346H32.9522H32.9699H32.9878H33.0058H33.0239H33.0421H33.0605H33.079H33.0976H33.1164H33.1353H33.1543H33.1734H33.1926H33.212H33.2315H33.2511H33.2708H33.2907H33.3106H33.3307H33.3509H33.3712H33.3916H33.4122H33.4328H33.4536H33.4744H33.4954H33.5165H33.5377H33.5589H33.5803H33.6018H33.6235H33.6452H33.667H33.6889H33.7109H33.733H33.7552H33.7776H33.8H33.8225H33.8451H33.8678H33.8905H33.9134H33.9364H33.9595H33.9826H34.0059H34.0292H34.0526H34.0761H34.0997H34.1234H34.1472H34.171H34.1949H34.219H34.243H34.2672H34.2915H34.3158H34.3402H34.3647H34.3893H34.4139H34.4386H34.4634H34.4882H34.5132H34.5382H34.5632H34.5884H34.6136H34.6388H34.6642H34.6896H34.7151H34.7406H34.7662H34.7918H34.8176H34.8433H34.8692H34.8951H34.921H34.9471H34.9731H34.9993H35.0254H35.0517H35.078H35.1043H35.1307H35.1571H35.1836H35.2102H35.2367H35.2634H35.2901H35.3168H35.3436H35.3704H35.3972H35.4241H35.4511H35.478H35.5051H35.5321H35.5592H35.5863H35.6135H35.6407H35.668H35.6952H35.7225H35.7499H35.7772H35.8046H35.832H35.8595H35.887H35.9145H35.942H35.9696H35.9972H36.0248H36.0524H36.08H36.1077H36.1354H36.1631H36.1908H36.2186H36.2463H36.2741H36.3019H36.3297H36.3575H36.3853H36.4132H36.441H36.4689H36.4968H36.5246H36.5525H36.5804H36.6083H36.6362H36.6641H36.692H36.7199H36.7478H36.7757H36.8036H36.8315H36.8594H36.8873H36.9152H36.9431H36.971H36.9989H37.0268H37.0546H37.0825H37.1103H37.1382H37.166H37.1938H37.2216H37.2494H37.2771H37.3049H37.3326H37.3603H37.388H37.4157H37.4434H37.471H37.4986H37.5262H37.5538H37.5813H37.6089H37.6364H37.6638H37.6913H37.7187H37.7461H37.7734H37.8007H37.828H37.8553H37.8825H37.9097H37.9368H37.9639H37.991H38.018H38.045H38.072H38.0989H38.1258H38.1526H38.1794H38.2062H38.2329H38.2595H38.2862H38.3127H38.3392H38.3657H38.3921H38.4185H38.4448H38.4711H38.4973H38.5234H38.5495H38.5756H38.6016H38.6275H38.6534H38.6792H38.7049H38.7306H38.7562H38.7818H38.8073H38.8327H38.8581H38.8834H38.9087H38.9338H38.9589H38.984H39.0089H39.0338H39.0586H39.0834H39.1081H39.1327H39.1572H39.1816H39.206H39.2303H39.2545H39.2786H39.3027H39.3267H39.3506H39.3744H39.3981H39.4217H39.4453H39.4687H39.4921H39.5154H39.5386H39.5617H39.5848H39.6077H39.6305H39.6533H39.6759H39.6985H39.7209H39.7433H39.7655H39.7877H39.8098H39.8317H39.8536H39.8754H39.897H39.9186H39.94H39.9614H39.9826H40.0038H40.0248H40.0457H40.0665H40.0872H40.1078H40.1283H40.1487H40.1689H40.189H40.2091H40.229H40.2487H40.2684H40.288H40.3074H40.3267H40.3459H40.365H40.3839H40.4027H40.4214H40.44H40.4584H40.4767H40.4949H40.513H40.5309H40.5487H40.5664H40.5839H40.6013H40.6186H40.6357H40.6527H40.6696H40.6863H40.7029H40.7193H40.7356H40.7518H40.7678H40.7837H40.7994H40.815H40.8305H40.8458H40.8609H40.8759H40.8908H40.9055H40.92H40.9344H40.9487H40.9628H40.9767H40.9905H41.0042H41.0177H41.031H41.0442H41.0572H41.07H41.0827H41.0952H41.1076H41.1198H41.1318H41.1437H41.1554H41.1669H41.1783H41.1895H41.2006H41.2114H41.2221H41.2327H41.243H41.2532H41.2632H41.273H41.2827H41.2922H41.3015H41.3106H41.3195H41.3283H41.3369H41.3453H41.3535H41.3615H41.3694H41.377H41.3845H41.3918H41.3989H41.4058H41.4126H41.4191H41.4255H41.4316H41.4376H41.4433H41.4489H41.4543H41.4595H41.4645H41.4692H41.4738H41.4782H41.4824H41.4864H41.4902H41.4938H41.4972H41.5003H41.5033H41.5061H41.5086H41.511H41.5131H41.515H41.5167H41.5183H41.5196H41.5206H41.5215H41.5222H41.5226H41.5228C42.9375 36.043 44.0888 34.8917 44.0888 33.477C44.0888 32.0624 42.9375 30.9111 41.5228 30.9111H39.839C39.531 30.9111 39.2814 30.6614 39.2814 30.3535C39.2814 30.0455 39.531 29.7959 39.839 29.7959H41.5228C43.5528 29.7959 45.204 31.447 45.204 33.477C45.2039 35.507 43.5528 37.1582 41.5228 37.1582H41.5226H41.5221H41.5215H41.5206H41.5195H41.5182H41.5167H41.515H41.5131H41.5109H41.5086H41.506H41.5033H41.5003H41.4971H41.4937H41.4902H41.4864H41.4824H41.4782H41.4738H41.4692H41.4644H41.4595H41.4543H41.4489H41.4433H41.4375H41.4316H41.4254H41.4191H41.4125H41.4058H41.3989H41.3918H41.3845H41.377H41.3694H41.3615H41.3535H41.3453H41.3369H41.3283H41.3195H41.3106H41.3014H41.2921H41.2827H41.273H41.2632H41.2532H41.243H41.2326H41.2221H41.2114H41.2005H41.1895H41.1783H41.1669H41.1554H41.1437H41.1318H41.1198H41.1076H41.0952H41.0827H41.07H41.0571H41.0441H41.031H41.0176H41.0042H40.9905H40.9767H40.9628H40.9487H40.9344H40.92H40.9055H40.8908H40.8759H40.8609H40.8457H40.8304H40.815H40.7994H40.7837H40.7678H40.7518H40.7356H40.7193H40.7029H40.6863H40.6696H40.6527H40.6357H40.6186H40.6013H40.5839H40.5664H40.5487H40.5309H40.513H40.4949H40.4767H40.4584H40.44H40.4214H40.4027H40.3839H40.3649H40.3459H40.3267H40.3074H40.288H40.2684H40.2487H40.2289H40.209H40.189H40.1689H40.1486H40.1283H40.1078H40.0872H40.0665H40.0457H40.0248H40.0038H39.9826H39.9614H39.94H39.9186H39.897H39.8754H39.8536H39.8317H39.8098H39.7877H39.7655H39.7433H39.7209H39.6984H39.6759H39.6532H39.6305H39.6077H39.5847H39.5617H39.5386H39.5154H39.4921H39.4687H39.4453H39.4217H39.3981H39.3744H39.3505H39.3267H39.3027H39.2786H39.2545H39.2303H39.206H39.1816H39.1572H39.1327H39.1081H39.0834H39.0586H39.0338H39.0089H38.984H38.9589H38.9338H38.9086H38.8834H38.8581H38.8327H38.8073H38.7818H38.7562H38.7306H38.7049H38.6792H38.6533H38.6275H38.6015H38.5756H38.5495H38.5234H38.4973H38.471H38.4448H38.4185H38.3921H38.3657H38.3392H38.3127H38.2861H38.2595H38.2329H38.2062H38.1794H38.1526H38.1258H38.0989H38.072H38.045H38.018H37.991H37.9639H37.9368H37.9097H37.8825H37.8552H37.828H37.8007H37.7734H37.746H37.7187H37.6912H37.6638H37.6363H37.6088H37.5813H37.5538H37.5262H37.4986H37.471H37.4434H37.4157H37.388H37.3603H37.3326H37.3049H37.2771H37.2494H37.2216H37.1938H37.166H37.1382H37.1103H37.0825H37.0546H37.0268H36.9989H36.971H36.9431H36.9152H36.8873H36.8594H36.8315H36.8036H36.7757H36.7478H36.7199H36.692H36.6641H36.6362H36.6083H36.5804H36.5525H36.5246H36.4967H36.4689H36.441H36.4132H36.3853H36.3575H36.3297H36.3019H36.2741H36.2463H36.2185H36.1908H36.1631H36.1354H36.1077H36.08H36.0524H36.0247H35.9971H35.9696H35.942H35.9145H35.887H35.8595H35.832H35.8046H35.7772H35.7498H35.7225H35.6952H35.6679H35.6407H35.6135H35.5863H35.5592H35.5321H35.505H35.478H35.451H35.4241H35.3972H35.3704H35.3435H35.3168H35.29H35.2634H35.2367H35.2101H35.1836H35.1571H35.1307H35.1043H35.0779H35.0517H35.0254H34.9992H34.9731H34.947H34.921H34.8951H34.8692H34.8433H34.8175H34.7918H34.7662H34.7406H34.715H34.6896H34.6642H34.6388H34.6136H34.5883H34.5632H34.5381H34.5131H34.4882H34.4634H34.4386H34.4139H34.3892H34.3647H34.3402H34.3158H34.2915H34.2672H34.243H34.2189H34.1949H34.171H34.1471H34.1234H34.0997H34.0761H34.0526H34.0292H34.0058H33.9826H33.9594H33.9364H33.9134H33.8905H33.8677H33.845H33.8224H33.7999H33.7775H33.7552H33.733H33.7109H33.6889H33.667H33.6451H33.6234H33.6018H33.5803H33.5589H33.5376H33.5164H33.4954H33.4744H33.4535H33.4328H33.4121H33.3916H33.3712H33.3509H33.3307H33.3106H33.2907H33.2708H33.2511H33.2315H33.212H33.1926H33.1734H33.1542H33.1352H33.1164H33.0976H33.079H33.0605H33.0421H33.0238H33.0057H32.9877H32.9699H32.9521H32.9345H32.9171H32.8998H32.8826H32.8655H32.8486H32.8318H32.8151H32.7986H32.7822H32.766H32.7499H32.734H32.7182H32.7025H32.687H32.6716H32.6564H32.6413H32.6264H32.6116H32.597H32.5825H32.5682H32.554H32.54H32.5261H32.5124H32.4988H32.4854H32.4722H32.4591H32.4462H32.4425M32.4425 36.043L32.4425 37.1582M33.3122 33.393L33.4644 33.5288M33.3122 33.393L33.3122 33.393L33.4644 33.5288M33.4644 33.5288C33.5343 33.4504 33.6311 33.4106 33.7284 33.4106C33.8122 33.4106 33.8962 33.4402 33.9637 33.5003L31.2063 36.0597L33.4644 33.5288ZM32.4425 37.1582L34.1443 39.0657L34.1443 39.0657C34.3493 39.2955 34.3293 39.648 34.0995 39.853L32.4425 37.1582Z" fill="white" stroke="white" stroke-width="0.407945"/>
</svg>
