<svg width="23" height="27" viewBox="0 0 23 27" fill="none" xmlns="http://www.w3.org/2000/svg">
<path d="M22.1488 24.4078L22.15 24.4173V24.4269V24.563C22.15 25.6212 21.2894 26.4818 20.2312 26.4818H2.76888C1.71069 26.4818 0.850044 25.6212 0.850044 24.563V24.4235V24.4133L0.851406 24.4033L3.02382 8.39249C3.11655 7.42012 3.93756 6.65708 4.93398 6.65708H7.84114C7.58235 6.12442 7.43654 5.52708 7.43654 4.89629C7.43654 2.66504 9.25158 0.85 11.4828 0.85C13.7141 0.85 15.5291 2.66504 15.5291 4.89629C15.5291 5.52714 15.3832 6.12448 15.1245 6.65708H18.1834C19.1815 6.65708 20.0036 7.42252 20.094 8.39732L22.1488 24.4078ZM11.4829 3.11534C10.501 3.11534 9.70198 3.91438 9.70198 4.89624C9.70198 5.78758 10.3607 6.52831 11.217 6.65703H11.7488C12.6051 6.52826 13.2638 5.78752 13.2638 4.89624C13.2638 3.91438 12.4648 3.11534 11.4829 3.11534ZM4.24747 7.92252L2.23122 25.2165H20.7733L18.8696 7.92252H11.8882C11.7549 7.93581 11.6196 7.94268 11.4829 7.94268C11.3462 7.94268 11.2109 7.93586 11.0775 7.92252H4.24747Z" fill="#616575" stroke="#616575" stroke-width="0.3"/>
<circle cx="11.5" cy="4.5" r="2.5" fill="white"/>
</svg>
