<svg width="83" height="20" viewBox="0 0 83 20" fill="none" xmlns="http://www.w3.org/2000/svg">
<path d="M11.016 7.49695C11.0903 7.37413 11.2234 7.29908 11.3669 7.29908H20.4193C20.3197 10.8491 17.4106 13.6963 13.8365 13.6963H10.4043C9.02634 13.6963 8.17734 12.1907 8.89044 11.0116L11.016 7.49695Z" stroke="white" stroke-width="2.46047"/>
<path d="M10.1605 0.907601C12.6465 3.38458 12.8871 7.14986 10.955 9.73573L9.1162 8.19651C10.3317 6.55861 10.065 4.14662 8.49345 2.58074C7.99036 2.07947 7.95573 1.2986 8.41609 0.836568C8.87646 0.374532 9.65744 0.406333 10.1605 0.907601Z" fill="white"/>
<rect y="7.29639" width="1.64032" height="8.20158" rx="0.820158" transform="rotate(-90 0 7.29639)" fill="url(#paint0_linear)"/>
<rect x="1.47632" y="9.75684" width="1.64032" height="4.92095" rx="0.820158" transform="rotate(-90 1.47632 9.75684)" fill="url(#paint1_linear)"/>
<rect x="0.929565" y="4.83594" width="1.64032" height="6.56126" rx="0.820158" transform="rotate(-90 0.929565 4.83594)" fill="url(#paint2_linear)"/>
<path d="M11.4823 15.9081C11.4823 16.0912 11.4462 16.2725 11.3761 16.4417C11.3061 16.6109 11.2034 16.7646 11.0739 16.894C10.9444 17.0235 10.7907 17.1262 10.6216 17.1963C10.4524 17.2663 10.2711 17.3024 10.088 17.3024C9.9049 17.3024 9.72359 17.2663 9.55443 17.1963C9.38527 17.1262 9.23157 17.0235 9.1021 16.894C8.97263 16.7646 8.86993 16.6109 8.79986 16.4417C8.72979 16.2725 8.69373 15.6811 8.69373 15.498L10.088 15.498L11.4823 15.498V15.9081Z" fill="white"/>
<path d="M15.419 15.9081C15.419 16.0912 15.383 16.2725 15.3129 16.4417C15.2428 16.6109 15.1401 16.7646 15.0107 16.894C14.8812 17.0235 14.7275 17.1262 14.5583 17.1963C14.3892 17.2663 14.2079 17.3024 14.0248 17.3024C13.8417 17.3024 13.6604 17.2663 13.4912 17.1963C13.322 17.1262 13.1683 17.0235 13.0389 16.894C12.9094 16.7646 12.8067 16.6109 12.7366 16.4417C12.6666 16.2725 12.6305 15.6811 12.6305 15.498L14.0248 15.498L15.419 15.498V15.9081Z" fill="white"/>
<path d="M27.1964 14.6882C26.3544 14.6882 25.6607 14.4998 25.1154 14.1228C24.5781 13.7379 24.3094 13.2006 24.3094 12.511C24.3094 12.4388 24.3174 12.3305 24.3335 12.1862H26.0536C26.0216 12.523 26.1098 12.7997 26.3183 13.0162C26.5348 13.2327 26.8475 13.341 27.2565 13.341C27.6655 13.341 27.9863 13.2568 28.2189 13.0884C28.4594 12.9119 28.5797 12.6633 28.5797 12.3426C28.5797 12.0458 28.4554 11.8093 28.2068 11.6328C27.9662 11.4564 27.5853 11.2599 27.0641 11.0434C26.5829 10.8429 26.19 10.6585 25.8852 10.4901C25.5885 10.3217 25.3319 10.0891 25.1154 9.79241C24.9069 9.48768 24.8026 9.10676 24.8026 8.64966C24.8026 8.1284 24.9349 7.67531 25.1996 7.29038C25.4722 6.90545 25.8411 6.60874 26.3062 6.40024C26.7794 6.19173 27.3167 6.08748 27.9181 6.08748C28.5116 6.08748 29.0248 6.18772 29.4578 6.38821C29.8989 6.58067 30.2277 6.85734 30.4442 7.21821C30.6688 7.57908 30.765 8.00009 30.7329 8.48125H28.9406L28.9526 8.34893C28.9526 8.08429 28.8524 7.86777 28.6519 7.69937C28.4594 7.53096 28.1868 7.44676 27.8339 7.44676C27.457 7.44676 27.1523 7.53497 26.9197 7.7114C26.6872 7.88782 26.5709 8.1284 26.5709 8.43313C26.5709 8.63362 26.635 8.81004 26.7633 8.96241C26.8997 9.10676 27.0641 9.23507 27.2565 9.34734C27.449 9.45159 27.7257 9.58792 28.0865 9.75632C28.5597 9.96483 28.9486 10.1613 29.2533 10.3457C29.5581 10.5302 29.8187 10.7748 30.0352 11.0795C30.2517 11.3842 30.36 11.7571 30.36 12.1982C30.36 12.6794 30.2277 13.1084 29.9631 13.4853C29.7064 13.8622 29.3375 14.1589 28.8564 14.3755C28.3832 14.584 27.8299 14.6882 27.1964 14.6882ZM37.5415 9.05062L36.5592 14.604H35.1558L35.2761 13.9023C35.0622 14.1429 34.7983 14.3334 34.4842 14.4737C34.1701 14.6073 33.8393 14.6742 33.4918 14.6742C32.9171 14.6742 32.4626 14.5205 32.1285 14.2131C31.7944 13.899 31.6273 13.4546 31.6273 12.8798C31.6273 12.666 31.644 12.4755 31.6774 12.3085L32.2488 9.05062H33.6522L33.1109 12.108C33.0908 12.2283 33.0808 12.3452 33.0808 12.4588C33.0808 12.7863 33.171 13.0402 33.3514 13.2207C33.5319 13.3944 33.7858 13.4813 34.1133 13.4813C34.4942 13.4813 34.8183 13.3644 35.0856 13.1305C35.3529 12.8899 35.5233 12.5491 35.5968 12.108L36.1382 9.05062H37.5415ZM40.1692 10.033C40.4098 9.69885 40.6904 9.43822 41.0112 9.2511C41.332 9.06399 41.6795 8.97043 42.0537 8.97043L41.7931 10.444H41.4222C41.0079 10.444 40.6737 10.5342 40.4198 10.7146C40.1725 10.8951 39.9921 11.2025 39.8785 11.6369L39.3572 14.604H37.9438L38.9262 9.05062H40.3396L40.1692 10.033ZM43.9413 12.8899C43.9346 12.93 43.9312 12.9834 43.9312 13.0503C43.9312 13.1839 43.968 13.2808 44.0415 13.341C44.1217 13.3944 44.252 13.4212 44.4324 13.4212H45.094L44.8835 14.604H43.9914C42.989 14.604 42.4877 14.1863 42.4877 13.351C42.4877 13.1906 42.5011 13.0336 42.5278 12.8798L42.999 10.2034H42.3374L42.5379 9.05062H43.2095L43.4501 7.67731H44.8635L44.6229 9.05062H45.8559L45.6554 10.2034H44.4124L43.9413 12.8899ZM47.6973 8.38903C47.4767 8.38903 47.2996 8.32554 47.166 8.19857C47.0323 8.0716 46.9655 7.91121 46.9655 7.71741C46.9655 7.4501 47.0657 7.22288 47.2662 7.03577C47.4734 6.84197 47.714 6.74507 47.988 6.74507C48.2018 6.74507 48.3756 6.80855 48.5092 6.93553C48.6429 7.0625 48.7097 7.22288 48.7097 7.41668C48.7097 7.684 48.6095 7.91455 48.409 8.10835C48.2085 8.29547 47.9712 8.38903 47.6973 8.38903ZM48.2787 9.05062L47.2963 14.604H45.8829L46.8653 9.05062H48.2787ZM51.8946 14.6882C51.0525 14.6882 50.3589 14.4998 49.8136 14.1228C49.2763 13.7379 49.0076 13.2006 49.0076 12.511C49.0076 12.4388 49.0156 12.3305 49.0317 12.1862H50.7518C50.7197 12.523 50.808 12.7997 51.0165 13.0162C51.233 13.2327 51.5457 13.341 51.9547 13.341C52.3637 13.341 52.6845 13.2568 52.917 13.0884C53.1576 12.9119 53.2779 12.6633 53.2779 12.3426C53.2779 12.0458 53.1536 11.8093 52.905 11.6328C52.6644 11.4564 52.2835 11.2599 51.7623 11.0434C51.2811 10.8429 50.8881 10.6585 50.5834 10.4901C50.2867 10.3217 50.0301 10.0891 49.8136 9.79241C49.6051 9.48768 49.5008 9.10676 49.5008 8.64966C49.5008 8.1284 49.6331 7.67531 49.8978 7.29038C50.1704 6.90545 50.5393 6.60874 51.0044 6.40024C51.4776 6.19173 52.0149 6.08748 52.6163 6.08748C53.2097 6.08748 53.723 6.18772 54.156 6.38821C54.5971 6.58067 54.9259 6.85734 55.1424 7.21821C55.3669 7.57908 55.4632 8.00009 55.4311 8.48125H53.6388L53.6508 8.34893C53.6508 8.08429 53.5506 7.86777 53.3501 7.69937C53.1576 7.53096 52.885 7.44676 52.5321 7.44676C52.1552 7.44676 51.8505 7.53497 51.6179 7.7114C51.3853 7.88782 51.2691 8.1284 51.2691 8.43313C51.2691 8.63362 51.3332 8.81004 51.4615 8.96241C51.5979 9.10676 51.7623 9.23507 51.9547 9.34734C52.1472 9.45159 52.4238 9.58792 52.7847 9.75632C53.2579 9.96483 53.6468 10.1613 53.9515 10.3457C54.2563 10.5302 54.5169 10.7748 54.7334 11.0795C54.9499 11.3842 55.0582 11.7571 55.0582 12.1982C55.0582 12.6794 54.9259 13.1084 54.6612 13.4853C54.4046 13.8622 54.0357 14.1589 53.5546 14.3755C53.0814 14.584 52.5281 14.6882 51.8946 14.6882ZM60.1447 8.97043C60.6927 8.97043 61.127 9.12747 61.4478 9.44156C61.7753 9.75565 61.939 10.1967 61.939 10.7648C61.939 10.9786 61.9223 11.1724 61.8889 11.3462L61.3075 14.604H59.9141L60.4554 11.5366C60.4755 11.4163 60.4855 11.2994 60.4855 11.1858C60.4855 10.8516 60.3953 10.5977 60.2148 10.4239C60.0411 10.2502 59.7905 10.1633 59.463 10.1633C59.0888 10.1633 58.7714 10.2769 58.5107 10.5041C58.2501 10.7247 58.0764 11.0421 57.9895 11.4564L57.4281 14.604H56.0147L57.3279 7.18613H58.7413L58.2902 9.73226C58.5174 9.49837 58.7914 9.31459 59.1122 9.18094C59.4396 9.0406 59.7838 8.97043 60.1447 8.97043ZM62.7824 11.8073C62.8826 11.2459 63.0797 10.748 63.3738 10.3137C63.6745 9.87929 64.0387 9.54515 64.4664 9.31125C64.8941 9.07735 65.3452 8.9604 65.8197 8.9604C66.234 8.9604 66.5815 9.04394 66.8622 9.21101C67.1495 9.37808 67.36 9.58859 67.4937 9.84253L67.634 9.05062H69.0474L68.0651 14.604H66.6517L66.802 13.792C66.5815 14.0527 66.2941 14.2699 65.94 14.4436C65.5925 14.6107 65.2115 14.6942 64.7972 14.6942C64.3896 14.6942 64.0287 14.604 63.7146 14.4236C63.4005 14.2365 63.1566 13.9758 62.9828 13.6417C62.8091 13.3009 62.7222 12.9066 62.7222 12.4588C62.7222 12.2517 62.7423 12.0345 62.7824 11.8073ZM67.1429 11.8273C67.1696 11.6536 67.183 11.5266 67.183 11.4464C67.183 11.0521 67.066 10.7447 66.8321 10.5242C66.6049 10.3036 66.3175 10.1934 65.97 10.1934C65.7094 10.1934 65.4555 10.2569 65.2082 10.3838C64.9676 10.5108 64.7571 10.6979 64.5767 10.9452C64.3962 11.1858 64.276 11.4731 64.2158 11.8073C64.1958 11.9342 64.1857 12.0545 64.1857 12.1681C64.1857 12.5691 64.2993 12.8865 64.5266 13.1204C64.7538 13.3476 65.0411 13.4613 65.3886 13.4613C65.6493 13.4613 65.9032 13.3978 66.1505 13.2708C66.3977 13.1371 66.6082 12.9467 66.782 12.6994C66.9624 12.4522 67.0827 12.1615 67.1429 11.8273ZM71.6912 9.85255C71.9184 9.59861 72.2024 9.3881 72.5432 9.22103C72.8907 9.04728 73.2683 8.9604 73.6759 8.9604C74.0903 8.9604 74.4545 9.05062 74.7686 9.23106C75.0894 9.40481 75.3366 9.65875 75.5104 9.99289C75.6841 10.327 75.771 10.718 75.771 11.1657C75.771 11.3729 75.7509 11.5867 75.7109 11.8073C75.6106 12.3753 75.4101 12.8798 75.1094 13.3209C74.8087 13.7553 74.4445 14.0928 74.0168 14.3334C73.5891 14.5739 73.1413 14.6942 72.6735 14.6942C72.2659 14.6942 71.9184 14.6107 71.631 14.4436C71.3503 14.2765 71.1365 14.066 70.9895 13.8121L70.388 17.2504H68.9746L70.4181 9.05062H71.8315L71.6912 9.85255ZM74.2774 11.8073C74.2974 11.6736 74.3075 11.5533 74.3075 11.4464C74.3075 11.0521 74.1939 10.7447 73.9666 10.5242C73.7394 10.3036 73.4487 10.1934 73.0945 10.1934C72.8406 10.1934 72.59 10.2602 72.3427 10.3939C72.0955 10.5208 71.8816 10.7079 71.7012 10.9552C71.5208 11.2025 71.4005 11.4932 71.3403 11.8273C71.3136 12.0011 71.3002 12.128 71.3002 12.2082C71.3002 12.6025 71.4138 12.9099 71.641 13.1305C71.8749 13.351 72.1656 13.4613 72.5131 13.4613C72.7738 13.4613 73.0277 13.3944 73.275 13.2608C73.5222 13.1271 73.7361 12.9367 73.9165 12.6894C74.097 12.4421 74.2173 12.1481 74.2774 11.8073ZM78.4849 9.85255C78.7121 9.59861 78.9961 9.3881 79.3369 9.22103C79.6844 9.04728 80.062 8.9604 80.4697 8.9604C80.884 8.9604 81.2482 9.05062 81.5623 9.23106C81.8831 9.40481 82.1303 9.65875 82.3041 9.99289C82.4778 10.327 82.5647 10.718 82.5647 11.1657C82.5647 11.3729 82.5447 11.5867 82.5046 11.8073C82.4043 12.3753 82.2038 12.8798 81.9031 13.3209C81.6024 13.7553 81.2382 14.0928 80.8105 14.3334C80.3828 14.5739 79.935 14.6942 79.4672 14.6942C79.0596 14.6942 78.7121 14.6107 78.4247 14.4436C78.1441 14.2765 77.9302 14.066 77.7832 13.8121L77.1817 17.2504H75.7683L77.2118 9.05062H78.6252L78.4849 9.85255ZM81.0711 11.8073C81.0912 11.6736 81.1012 11.5533 81.1012 11.4464C81.1012 11.0521 80.9876 10.7447 80.7604 10.5242C80.5332 10.3036 80.2425 10.1934 79.8883 10.1934C79.6343 10.1934 79.3837 10.2602 79.1365 10.3939C78.8892 10.5208 78.6753 10.7079 78.4949 10.9552C78.3145 11.2025 78.1942 11.4932 78.134 11.8273C78.1073 12.0011 78.0939 12.128 78.0939 12.2082C78.0939 12.6025 78.2075 12.9099 78.4348 13.1305C78.6687 13.351 78.9594 13.4613 79.3069 13.4613C79.5675 13.4613 79.8214 13.3944 80.0687 13.2608C80.316 13.1271 80.5298 12.9367 80.7102 12.6894C80.8907 12.4421 81.011 12.1481 81.0711 11.8073Z" fill="white"/>
<defs>
<linearGradient id="paint0_linear" x1="0.820158" y1="7.29639" x2="0.820158" y2="15.498" gradientUnits="userSpaceOnUse">
<stop stop-color="#00A3FF" stop-opacity="0"/>
<stop offset="1" stop-color="white"/>
</linearGradient>
<linearGradient id="paint1_linear" x1="2.29648" y1="9.75684" x2="2.29648" y2="14.6778" gradientUnits="userSpaceOnUse">
<stop stop-color="#00A3FF" stop-opacity="0"/>
<stop offset="1" stop-color="white"/>
</linearGradient>
<linearGradient id="paint2_linear" x1="1.74972" y1="4.83594" x2="1.74972" y2="11.3972" gradientUnits="userSpaceOnUse">
<stop stop-color="#00A3FF" stop-opacity="0"/>
<stop offset="1" stop-color="white"/>
</linearGradient>
</defs>
</svg>
