<svg width="18" height="18" viewBox="0 0 18 18" fill="none" xmlns="http://www.w3.org/2000/svg">
<path d="M15.2495 6.42103L16.6491 7.82063C17.317 8.48849 17.317 9.57472 16.6491 10.2426L15.2495 11.6422C15.0982 11.7935 14.8996 11.8692 14.7014 11.8692C14.5033 11.8692 14.3048 11.7935 14.1535 11.6422L15.2495 6.42103ZM15.2495 6.42103C14.9468 6.11832 14.456 6.11828 14.1534 6.42106M15.2495 6.42103L14.1534 6.42106M14.1534 6.42106C13.8507 6.72367 13.8507 7.21439 14.1534 7.51699M14.1534 6.42106L14.1534 7.51699M14.1534 7.51699C14.1534 7.517 14.1534 7.51701 14.1535 7.51702M14.1534 7.51699L14.1535 7.51702M14.1535 7.51702L14.8929 8.25657H7.7503C7.32222 8.25657 6.97527 8.60353 6.97527 9.0316C6.97527 9.45967 7.32222 9.80663 7.7503 9.80663H14.8929L14.1535 10.5462C14.1534 10.5462 14.1534 10.5462 14.1534 10.5462C13.8507 10.8488 13.8507 11.3396 14.1534 11.6422L14.1535 7.51702ZM12.4317 14.5006V13.2505C12.4317 12.8225 12.0848 12.4755 11.6567 12.4755C11.2286 12.4755 10.8817 12.8225 10.8817 13.2505V14.5006C10.8817 15.107 10.388 15.6006 9.78164 15.6006H3.50011C2.89371 15.6006 2.40005 15.107 2.40005 14.5006V3.50011C2.40005 2.89371 2.89371 2.40005 3.50011 2.40005H9.78164C10.388 2.40005 10.8817 2.89371 10.8817 3.50011V4.75016C10.8817 5.17824 11.2286 5.52519 11.6567 5.52519C12.0848 5.52519 12.4317 5.17824 12.4317 4.75016V3.50011C12.4317 2.03867 11.2431 0.85 9.78164 0.85H3.50011C2.03867 0.85 0.85 2.03867 0.85 3.50011V14.5006C0.85 15.962 2.03867 17.1507 3.50011 17.1507H9.78164C11.2431 17.1507 12.4317 15.962 12.4317 14.5006Z" fill="white" stroke="white" stroke-width="0.3"/>
</svg>
