<svg width="8" height="16" viewBox="0 0 8 16" fill="none" xmlns="http://www.w3.org/2000/svg">
<path d="M4.80001 7.19999H3.20004C2.3164 7.19999 1.60007 6.48365 1.60007 5.60002V4.80001C1.60007 3.91638 2.3164 3.20004 3.20004 3.20004H4.80001C5.68364 3.20004 6.39998 3.91638 6.39998 4.80001C6.39998 5.24185 6.75815 5.60002 7.19999 5.60002C7.64183 5.60002 8 5.24185 8 4.80001C8 3.0327 6.56732 1.60002 4.80001 1.60002V0.800009C4.80001 0.358169 4.44184 0 4 0C3.55816 0 3.19999 0.358169 3.19999 0.800009V1.60002C1.43268 1.60002 0 3.0327 0 4.80001V5.60002C0 7.36733 1.43268 8.80001 3.19999 8.80001H4.80001C5.68364 8.80001 6.39998 9.51635 6.39998 10.4V11.1999C6.39998 12.0836 5.68364 12.7999 4.80001 12.7999H3.20004C2.3164 12.7999 1.60007 12.0836 1.60007 11.1999C1.60007 10.7581 1.2419 10.3999 0.800057 10.3999C0.358216 10.3999 4.72065e-05 10.7581 4.72065e-05 11.1999C4.72065e-05 12.9673 1.43272 14.3999 3.20004 14.3999V15.1999C3.20004 15.6418 3.55821 16 4.00005 16C4.44189 16 4.80001 15.6417 4.80001 15.1999V14.3999C6.56732 14.3999 8 12.9672 8 11.1999V10.3999C8 8.63267 6.56732 7.19999 4.80001 7.19999Z" fill="#C8CED5"/>
</svg>
