<svg width="12" height="17" viewBox="0 0 12 17" fill="none" xmlns="http://www.w3.org/2000/svg">
<path d="M5.5774 0C3.18708 0 1.24927 1.56125 1.24927 3.48707V8.29921C1.73637 8.01739 2.26521 7.78536 2.82311 7.60814V3.48707C2.82311 2.26152 4.05625 1.42782 5.5774 1.42782C7.09854 1.42782 8.3316 2.26152 8.3316 3.48707V7.60814C8.88954 7.78536 9.41833 8.01739 9.90544 8.29921V3.48707C9.90552 1.56125 7.96772 0 5.5774 0Z" fill="#C8CED5"/>
<path d="M8.8062 6.87721C8.44282 6.61631 8.04831 6.4015 7.63212 6.23743C6.31212 5.71448 4.84273 5.71448 3.52274 6.23743C3.10651 6.4015 2.71203 6.61631 2.34865 6.87721C-0.162757 8.66006 -0.753027 12.1409 1.03012 14.6519C2.81327 17.1628 6.2948 17.753 8.8062 15.9701C11.3176 14.1873 11.9079 10.7064 10.1247 8.19549C9.76222 7.68514 9.31665 7.23966 8.8062 6.87721Z" fill="#C8CED5"/>
<path d="M7.56433 10.7841C7.56388 11.4203 7.22395 12.0075 6.67333 12.3256V13.9027C6.67333 14.3949 6.2746 14.7937 5.78234 14.7937C5.29007 14.7937 4.89134 14.3949 4.89134 13.9027V12.3256C4.03911 11.8333 3.74684 10.7436 4.23911 9.89134C4.73137 9.03911 5.8211 8.74684 6.67333 9.23911C7.22527 9.55763 7.56479 10.1466 7.56433 10.7841Z" fill="white"/>
</svg>
