<svg width="17" height="17" viewBox="0 0 17 17" fill="none" xmlns="http://www.w3.org/2000/svg">
<path d="M14.9016 8.99805H16.502C16.777 8.99805 17 8.77505 17 8.5V3.69883C17 3.42377 16.777 3.20078 16.502 3.20078H12.1988V2.09844C12.1988 0.941342 11.2575 0 10.1004 0C8.94333 0 8.00195 0.941375 8.00195 2.09844V3.20078H3.69883C3.42377 3.20078 3.20078 3.42377 3.20078 3.69883V8.00195H2.09844C0.941375 8.00195 0 8.94333 0 10.1004C0 11.2575 0.941375 12.1988 2.09844 12.1988H3.20078V16.502C3.20078 16.777 3.42377 17 3.69883 17H8.5C8.77505 17 8.99805 16.777 8.99805 16.502V14.9016C8.99805 14.2937 9.49257 13.7992 10.1004 13.7992C10.7082 13.7992 11.2027 14.2937 11.2027 14.9016V16.502C11.2027 16.777 11.4257 17 11.7008 17H16.502C16.777 17 17 16.777 17 16.502V11.7008C17 11.4257 16.777 11.2027 16.502 11.2027H14.9016C14.2937 11.2027 13.7992 10.7082 13.7992 10.1004C13.7992 9.49257 14.2937 8.99805 14.9016 8.99805ZM14.9016 12.1988H16.0039V16.0039H12.1988V14.9016C12.1988 13.7445 11.2575 12.8031 10.1004 12.8031C8.94333 12.8031 8.00195 13.7445 8.00195 14.9016V16.0039H4.19688V11.7008C4.19688 11.4257 3.97388 11.2027 3.69883 11.2027H2.09844C1.49059 11.2027 0.996094 10.7082 0.996094 10.1004C0.996094 9.49257 1.49062 8.99805 2.09844 8.99805H3.69883C3.97388 8.99805 4.19688 8.77505 4.19688 8.5V4.19688H8.5C8.77505 4.19688 8.99805 3.97388 8.99805 3.69883V2.09844C8.99805 1.49059 9.49257 0.996094 10.1004 0.996094C10.7082 0.996094 11.2027 1.49062 11.2027 2.09844V3.69883C11.2027 3.97388 11.4257 4.19688 11.7008 4.19688H16.0039V8.00195H14.9016C13.7445 8.00195 12.8031 8.94333 12.8031 10.1004C12.8031 11.2575 13.7445 12.1988 14.9016 12.1988Z" fill="#616575"/>
</svg>
