<svg width="23" height="23" viewBox="0 0 23 23" fill="none" xmlns="http://www.w3.org/2000/svg">
<path d="M19.4079 12.1652H21.3848C21.7522 12.1652 22.05 11.8674 22.05 11.5V5.56914C22.05 5.20175 21.7522 4.90391 21.3848 4.90391H16.1191V3.59219C16.1191 2.13522 14.9339 0.95 13.477 0.95C12.02 0.95 10.8348 2.13526 10.8348 3.59219V4.90391H5.56914C5.20175 4.90391 4.90391 5.20175 4.90391 5.56914V10.8348H3.59219C2.13526 10.8348 0.95 12.02 0.95 13.477C0.95 14.9339 2.13526 16.1191 3.59219 16.1191H4.90391V21.3848C4.90391 21.7522 5.20175 22.05 5.56914 22.05H11.5C11.8674 22.05 12.1652 21.7522 12.1652 21.3848V19.4078C12.1652 18.6846 12.7537 18.0961 13.477 18.0961C14.2002 18.0961 14.7887 18.6846 14.7887 19.4078V21.3848C14.7887 21.7522 15.0865 22.05 15.4539 22.05H21.3848C21.7522 22.05 22.05 21.7522 22.05 21.3848V15.4539C22.05 15.0865 21.7522 14.7887 21.3848 14.7887H19.4079C18.6846 14.7887 18.0961 14.2002 18.0961 13.477C18.0961 12.7537 18.6846 12.1652 19.4079 12.1652ZM19.4079 16.1191H20.7195V20.7195H16.1191V19.4078C16.1191 17.9508 14.9339 16.7656 13.477 16.7656C12.02 16.7656 10.8348 17.9508 10.8348 19.4078V20.7195H6.23438V15.4539C6.23438 15.0865 5.93653 14.7887 5.56914 14.7887H3.59219C2.86893 14.7887 2.28047 14.2002 2.28047 13.477C2.28047 12.7537 2.86897 12.1652 3.59219 12.1652H5.56914C5.93653 12.1652 6.23438 11.8674 6.23438 11.5V6.23438H11.5C11.8674 6.23438 12.1652 5.93653 12.1652 5.56914V3.59219C12.1652 2.86893 12.7537 2.28047 13.477 2.28047C14.2002 2.28047 14.7887 2.86897 14.7887 3.59219V5.56914C14.7887 5.93653 15.0865 6.23438 15.4539 6.23438H20.7195V10.8348H19.4079C17.9508 10.8348 16.7656 12.02 16.7656 13.477C16.7656 14.9339 17.9508 16.1191 19.4079 16.1191Z" fill="#616575" stroke="#616575" stroke-width="0.1"/>
</svg>
