<svg width="39" height="39" viewBox="0 0 39 39" fill="none" xmlns="http://www.w3.org/2000/svg">
<path d="M19.4079 12.1652H21.3848C21.7522 12.1652 22.05 11.8674 22.05 11.5V5.56914C22.05 5.20175 21.7522 4.90391 21.3848 4.90391H16.1191V3.59219C16.1191 2.13522 14.9339 0.95 13.477 0.95C12.02 0.95 10.8348 2.13526 10.8348 3.59219V4.90391H5.56914C5.20175 4.90391 4.90391 5.20175 4.90391 5.56914V10.8348H3.59219C2.13526 10.8348 0.95 12.02 0.95 13.477C0.95 14.9339 2.13526 16.1191 3.59219 16.1191H4.90391V21.3848C4.90391 21.7522 5.20175 22.05 5.56914 22.05H11.5C11.8674 22.05 12.1652 21.7522 12.1652 21.3848V19.4078C12.1652 18.6846 12.7537 18.0961 13.477 18.0961C14.2002 18.0961 14.7887 18.6846 14.7887 19.4078V21.3848C14.7887 21.7522 15.0865 22.05 15.4539 22.05H21.3848C21.7522 22.05 22.05 21.7522 22.05 21.3848V15.4539C22.05 15.0865 21.7522 14.7887 21.3848 14.7887H19.4079C18.6846 14.7887 18.0961 14.2002 18.0961 13.477C18.0961 12.7537 18.6846 12.1652 19.4079 12.1652ZM19.4079 16.1191H20.7195V20.7195H16.1191V19.4078C16.1191 17.9508 14.9339 16.7656 13.477 16.7656C12.02 16.7656 10.8348 17.9508 10.8348 19.4078V20.7195H6.23438V15.4539C6.23438 15.0865 5.93653 14.7887 5.56914 14.7887H3.59219C2.86893 14.7887 2.28047 14.2002 2.28047 13.477C2.28047 12.7537 2.86897 12.1652 3.59219 12.1652H5.56914C5.93653 12.1652 6.23438 11.8674 6.23438 11.5V6.23438H11.5C11.8674 6.23438 12.1652 5.93653 12.1652 5.56914V3.59219C12.1652 2.86893 12.7537 2.28047 13.477 2.28047C14.2002 2.28047 14.7887 2.86897 14.7887 3.59219V5.56914C14.7887 5.93653 15.0865 6.23438 15.4539 6.23438H20.7195V10.8348H19.4079C17.9508 10.8348 16.7656 12.02 16.7656 13.477C16.7656 14.9339 17.9508 16.1191 19.4079 16.1191Z" fill="#616575" stroke="#616575" stroke-width="0.1"/>
<path d="M35.4079 12.1652H37.3848C37.7522 12.1652 38.05 11.8674 38.05 11.5V5.56914C38.05 5.20175 37.7522 4.90391 37.3848 4.90391H32.1191V3.59219C32.1191 2.13522 30.9339 0.95 29.477 0.95C28.02 0.95 26.8348 2.13526 26.8348 3.59219V4.90391H21.5691C21.2018 4.90391 20.9039 5.20175 20.9039 5.56914V10.8348H19.5922C18.1353 10.8348 16.95 12.02 16.95 13.477C16.95 14.9339 18.1353 16.1191 19.5922 16.1191H20.9039V21.3848C20.9039 21.7522 21.2018 22.05 21.5691 22.05H27.5C27.8674 22.05 28.1652 21.7522 28.1652 21.3848V19.4078C28.1652 18.6846 28.7537 18.0961 29.477 18.0961C30.2002 18.0961 30.7887 18.6846 30.7887 19.4078V21.3848C30.7887 21.7522 31.0865 22.05 31.4539 22.05H37.3848C37.7522 22.05 38.05 21.7522 38.05 21.3848V15.4539C38.05 15.0865 37.7522 14.7887 37.3848 14.7887H35.4079C34.6846 14.7887 34.0961 14.2002 34.0961 13.477C34.0961 12.7537 34.6846 12.1652 35.4079 12.1652ZM35.4079 16.1191H36.7195V20.7195H32.1191V19.4078C32.1191 17.9508 30.9339 16.7656 29.477 16.7656C28.02 16.7656 26.8348 17.9508 26.8348 19.4078V20.7195H22.2344V15.4539C22.2344 15.0865 21.9365 14.7887 21.5691 14.7887H19.5922C18.8689 14.7887 18.2805 14.2002 18.2805 13.477C18.2805 12.7537 18.869 12.1652 19.5922 12.1652H21.5691C21.9365 12.1652 22.2344 11.8674 22.2344 11.5V6.23438H27.5C27.8674 6.23438 28.1652 5.93653 28.1652 5.56914V3.59219C28.1652 2.86893 28.7537 2.28047 29.477 2.28047C30.2002 2.28047 30.7887 2.86897 30.7887 3.59219V5.56914C30.7887 5.93653 31.0865 6.23438 31.4539 6.23438H36.7195V10.8348H35.4079C33.9508 10.8348 32.7656 12.02 32.7656 13.477C32.7656 14.9339 33.9508 16.1191 35.4079 16.1191Z" fill="#616575" stroke="#616575" stroke-width="0.1"/>
<path d="M19.4079 28.1652H21.3848C21.7522 28.1652 22.05 27.8674 22.05 27.5V21.5691C22.05 21.2018 21.7522 20.9039 21.3848 20.9039H16.1191V19.5922C16.1191 18.1352 14.9339 16.95 13.477 16.95C12.02 16.95 10.8348 18.1353 10.8348 19.5922V20.9039H5.56914C5.20175 20.9039 4.90391 21.2018 4.90391 21.5691V26.8348H3.59219C2.13526 26.8348 0.95 28.02 0.95 29.477C0.95 30.9339 2.13526 32.1191 3.59219 32.1191H4.90391V37.3848C4.90391 37.7522 5.20175 38.05 5.56914 38.05H11.5C11.8674 38.05 12.1652 37.7522 12.1652 37.3848V35.4078C12.1652 34.6846 12.7537 34.0961 13.477 34.0961C14.2002 34.0961 14.7887 34.6846 14.7887 35.4078V37.3848C14.7887 37.7522 15.0865 38.05 15.4539 38.05H21.3848C21.7522 38.05 22.05 37.7522 22.05 37.3848V31.4539C22.05 31.0865 21.7522 30.7887 21.3848 30.7887H19.4079C18.6846 30.7887 18.0961 30.2002 18.0961 29.477C18.0961 28.7537 18.6846 28.1652 19.4079 28.1652ZM19.4079 32.1191H20.7195V36.7195H16.1191V35.4078C16.1191 33.9508 14.9339 32.7656 13.477 32.7656C12.02 32.7656 10.8348 33.9508 10.8348 35.4078V36.7195H6.23438V31.4539C6.23438 31.0865 5.93653 30.7887 5.56914 30.7887H3.59219C2.86893 30.7887 2.28047 30.2002 2.28047 29.477C2.28047 28.7537 2.86897 28.1652 3.59219 28.1652H5.56914C5.93653 28.1652 6.23438 27.8674 6.23438 27.5V22.2344H11.5C11.8674 22.2344 12.1652 21.9365 12.1652 21.5691V19.5922C12.1652 18.8689 12.7537 18.2805 13.477 18.2805C14.2002 18.2805 14.7887 18.869 14.7887 19.5922V21.5691C14.7887 21.9365 15.0865 22.2344 15.4539 22.2344H20.7195V26.8348H19.4079C17.9508 26.8348 16.7656 28.02 16.7656 29.477C16.7656 30.9339 17.9508 32.1191 19.4079 32.1191Z" fill="#616575" stroke="#616575" stroke-width="0.1"/>
</svg>
