<svg width="50" height="47" viewBox="0 0 50 47" fill="none" xmlns="http://www.w3.org/2000/svg">
<path fill-rule="evenodd" clip-rule="evenodd" d="M37.2282 2.09484C37.2337 2.09249 37.3325 2.30941 42.6664 13.1719C43.9894 15.8663 42.4264 18.9864 39.5504 19.7515V31.0239C39.5504 33.0443 37.8464 34.6881 35.7519 34.6881H23.3437V34.7242H19.7986V34.6881H7.39032C5.29585 34.6881 3.59187 33.0443 3.59187 31.0239V19.7514C0.717546 18.9868 -0.847834 15.8678 0.475965 13.1719C5.80703 2.31503 5.90866 2.09245 5.91414 2.0948C5.9144 2.09491 5.91444 2.09554 5.91483 2.09554C6.53997 0.822581 7.88741 0 9.34761 0H33.7947C35.2549 0 36.6024 0.822581 37.2275 2.09554C37.2279 2.09554 37.2279 2.09495 37.2282 2.09484ZM26.5073 3.41996H23.3438L23.3439 13.6754C23.3439 15.2344 24.6585 16.5026 26.2746 16.5026C28.1976 16.5026 29.5977 14.7484 29.1087 12.9559L26.5073 3.41996ZM14.5468 15.4016C16.2436 17.525 19.7986 16.3738 19.7986 13.6755V3.41996H16.6351L14.0336 12.956C13.8006 13.8105 13.9876 14.7018 14.5468 15.4016ZM9.11957 3.55901C9.12248 3.56052 8.96188 3.87911 3.68 14.6359C3.25423 15.5029 3.90942 16.5027 4.90453 16.5026H7.14105C8.47127 16.5026 9.63671 15.6359 9.97528 14.3949L12.9692 3.41996H9.3477C9.25037 3.41996 9.16047 3.47484 9.11878 3.55969C9.11909 3.55938 9.11946 3.55896 9.11957 3.55901ZM7.13709 31.0239C7.13709 31.1586 7.2507 31.2682 7.39032 31.2682H35.752C35.8916 31.2682 36.0053 31.1586 36.0053 31.0239C36.0053 20.3629 36.0091 19.9191 36.0032 19.919C36.0027 19.919 36.0021 19.9226 36.0014 19.9226C34.0936 19.9226 32.3399 19.1152 31.1389 17.7992C28.6214 20.5716 24.1875 20.6324 21.5712 17.9631C18.9566 20.6306 14.5224 20.5734 12.0034 17.7992C10.8024 19.1153 9.04872 19.9226 7.14097 19.9226C7.14026 19.9226 7.13965 19.919 7.13912 19.919C7.13326 19.9191 7.13709 20.3645 7.13709 31.0239ZM36.0013 16.5027H38.2378C39.2322 16.5027 39.8884 15.5035 39.4624 14.6359C34.1778 3.87382 34.02 3.5607 34.023 3.55917C34.0231 3.55912 34.0234 3.55942 34.0237 3.55969C33.982 3.47476 33.8921 3.41996 33.7947 3.41996H30.1732L33.1671 14.395C33.5056 15.636 34.6711 16.5027 36.0013 16.5027Z" fill="white"/>
<circle cx="37.9987" cy="34.6321" r="12.0013" fill="white"/>
<rect x="31.1594" y="33.8818" width="14.0519" height="1.5942" rx="0.797102" fill="#00A3FF"/>
<rect x="37.5048" y="41.5879" width="14.0519" height="1.5942" rx="0.797102" transform="rotate(-90 37.5048 41.5879)" fill="#00A3FF"/>
</svg>
