<svg width="50" height="47" viewBox="0 0 50 47" fill="none" xmlns="http://www.w3.org/2000/svg">
<path fill-rule="evenodd" clip-rule="evenodd" d="M37.2282 2.09484C37.2337 2.09249 37.3325 2.30941 42.6664 13.1719C43.9894 15.8663 42.4264 18.9864 39.5504 19.7515V31.0239C39.5504 33.0443 37.8464 34.6881 35.7519 34.6881H23.3437V34.7242H19.7986V34.6881H7.39032C5.29585 34.6881 3.59187 33.0443 3.59187 31.0239V19.7514C0.717546 18.9868 -0.847834 15.8678 0.475965 13.1719C5.80703 2.31503 5.90866 2.09245 5.91414 2.0948C5.9144 2.09491 5.91444 2.09554 5.91483 2.09554C6.53997 0.822581 7.88741 0 9.34761 0H33.7947C35.2549 0 36.6024 0.822581 37.2275 2.09554C37.2279 2.09554 37.2279 2.09495 37.2282 2.09484ZM26.5073 3.41996H23.3438L23.3439 13.6754C23.3439 15.2344 24.6585 16.5026 26.2746 16.5026C28.1976 16.5026 29.5977 14.7484 29.1087 12.9559L26.5073 3.41996ZM14.5468 15.4016C16.2436 17.525 19.7986 16.3738 19.7986 13.6755V3.41996H16.6351L14.0336 12.956C13.8006 13.8105 13.9876 14.7018 14.5468 15.4016ZM9.11957 3.55901C9.12248 3.56052 8.96188 3.87911 3.68 14.6359C3.25423 15.5029 3.90942 16.5027 4.90453 16.5026H7.14105C8.47127 16.5026 9.63671 15.6359 9.97528 14.3949L12.9692 3.41996H9.3477C9.25037 3.41996 9.16047 3.47484 9.11878 3.55969C9.11909 3.55938 9.11946 3.55896 9.11957 3.55901ZM7.13709 31.0239C7.13709 31.1586 7.2507 31.2682 7.39032 31.2682H35.752C35.8916 31.2682 36.0053 31.1586 36.0053 31.0239C36.0053 20.3629 36.0091 19.9191 36.0032 19.919C36.0027 19.919 36.0021 19.9226 36.0014 19.9226C34.0936 19.9226 32.3399 19.1152 31.1389 17.7992C28.6214 20.5716 24.1875 20.6324 21.5712 17.9631C18.9566 20.6306 14.5224 20.5734 12.0034 17.7992C10.8024 19.1153 9.04872 19.9226 7.14097 19.9226C7.14026 19.9226 7.13965 19.919 7.13912 19.919C7.13326 19.9191 7.13709 20.3645 7.13709 31.0239ZM36.0013 16.5027H38.2378C39.2322 16.5027 39.8884 15.5035 39.4624 14.6359C34.1778 3.87382 34.02 3.5607 34.023 3.55917C34.0231 3.55912 34.0234 3.55942 34.0237 3.55969C33.982 3.47476 33.8921 3.41996 33.7947 3.41996H30.1732L33.1671 14.395C33.5056 15.636 34.6711 16.5027 36.0013 16.5027Z" fill="#00A3FF"/>
<circle cx="37.9987" cy="34.6321" r="12.0013" fill="#00A3FF"/>
<path d="M31.28 31.9102C31.3835 31.9102 31.4828 31.8691 31.5559 31.7959C31.6291 31.7228 31.6702 31.6235 31.6702 31.52V29.84C31.6702 29.795 31.6881 29.7518 31.72 29.72C31.7518 29.6881 31.795 29.6702 31.84 29.6702H33.52C33.6235 29.6702 33.7228 29.6291 33.7959 29.5559C33.8691 29.4828 33.9102 29.3835 33.9102 29.28C33.9102 29.1765 33.8691 29.0772 33.7959 29.0041C33.7228 28.9309 33.6235 28.8898 33.52 28.8898H31.84C31.588 28.8898 31.3463 28.9899 31.1681 29.1681C30.9899 29.3463 30.8898 29.588 30.8898 29.84V31.52C30.8898 31.6235 30.9309 31.7228 31.0041 31.7959C31.0772 31.8691 31.1765 31.9102 31.28 31.9102Z" fill="white" stroke="white" stroke-width="0.2205"/>
<path d="M33.52 40.0897H31.84C31.795 40.0897 31.7518 40.0718 31.72 40.04C31.6881 40.0082 31.6702 39.965 31.6702 39.92V38.24C31.6702 38.1365 31.6291 38.0372 31.5559 37.964C31.4828 37.8908 31.3835 37.8497 31.28 37.8497C31.1765 37.8497 31.0772 37.8908 31.0041 37.964C30.9309 38.0372 30.8898 38.1365 30.8898 38.24V39.92C30.8898 40.172 30.9899 40.4137 31.1681 40.5919C31.3463 40.7701 31.588 40.8702 31.84 40.8702H33.52C33.6235 40.8702 33.7228 40.8291 33.7959 40.7559C33.8691 40.6827 33.9102 40.5835 33.9102 40.48C33.9102 40.3765 33.8691 40.2772 33.7959 40.204C33.7228 40.1308 33.6235 40.0897 33.52 40.0897Z" fill="white" stroke="white" stroke-width="0.2205"/>
<mask id="path-5-outside-1" maskUnits="userSpaceOnUse" x="41.2" y="36.96" width="5" height="5" fill="black">
<rect fill="white" x="41.2" y="36.96" width="5" height="5"/>
<path d="M44.72 37.96C44.6457 37.96 44.5745 37.9895 44.522 38.042C44.4695 38.0945 44.44 38.1657 44.44 38.24V39.92C44.44 39.9942 44.4105 40.0654 44.3579 40.118C44.3054 40.1705 44.2342 40.2 44.16 40.2H42.48C42.4057 40.2 42.3345 40.2295 42.282 40.282C42.2295 40.3345 42.2 40.4057 42.2 40.48C42.2 40.5542 42.2295 40.6254 42.282 40.678C42.3345 40.7305 42.4057 40.76 42.48 40.76H44.16C44.3827 40.76 44.5964 40.6715 44.7539 40.5139C44.9115 40.3564 45 40.1427 45 39.92V38.24C45 38.1657 44.9705 38.0945 44.9179 38.042C44.8654 37.9895 44.7942 37.96 44.72 37.96Z"/>
</mask>
<path d="M44.72 37.96C44.6457 37.96 44.5745 37.9895 44.522 38.042C44.4695 38.0945 44.44 38.1657 44.44 38.24V39.92C44.44 39.9942 44.4105 40.0654 44.3579 40.118C44.3054 40.1705 44.2342 40.2 44.16 40.2H42.48C42.4057 40.2 42.3345 40.2295 42.282 40.282C42.2295 40.3345 42.2 40.4057 42.2 40.48C42.2 40.5542 42.2295 40.6254 42.282 40.678C42.3345 40.7305 42.4057 40.76 42.48 40.76H44.16C44.3827 40.76 44.5964 40.6715 44.7539 40.5139C44.9115 40.3564 45 40.1427 45 39.92V38.24C45 38.1657 44.9705 38.0945 44.9179 38.042C44.8654 37.9895 44.7942 37.96 44.72 37.96Z" fill="white"/>
<path d="M44.72 37.7395C44.5872 37.7395 44.4599 37.7922 44.366 37.8861L44.6779 38.1979C44.689 38.1867 44.7042 38.1805 44.72 38.1805V37.7395ZM44.366 37.8861C44.2722 37.9799 44.2195 38.1072 44.2195 38.24H44.6605C44.6605 38.2242 44.6667 38.209 44.6779 38.1979L44.366 37.8861ZM44.2195 38.24V39.92H44.6605V38.24H44.2195ZM44.2195 39.92C44.2195 39.9357 44.2132 39.9509 44.202 39.962L44.5139 40.2739C44.6077 40.18 44.6605 40.0527 44.6605 39.92H44.2195ZM44.202 39.962C44.1909 39.9732 44.1757 39.9795 44.16 39.9795V40.4205C44.2927 40.4205 44.42 40.3677 44.5139 40.2739L44.202 39.962ZM44.16 39.9795H42.48V40.4205H44.16V39.9795ZM42.48 39.9795C42.3472 39.9795 42.2199 40.0322 42.126 40.1261L42.4379 40.4379C42.449 40.4267 42.4642 40.4205 42.48 40.4205V39.9795ZM42.126 40.1261C42.0322 40.2199 41.9795 40.3472 41.9795 40.48H42.4205C42.4205 40.4642 42.4267 40.449 42.4379 40.4379L42.126 40.1261ZM41.9795 40.48C41.9795 40.6127 42.0322 40.74 42.126 40.8339L42.4379 40.522C42.4267 40.5109 42.4205 40.4957 42.4205 40.48H41.9795ZM42.126 40.8339C42.2199 40.9277 42.3472 40.9805 42.48 40.9805V40.5395C42.4642 40.5395 42.449 40.5332 42.4379 40.522L42.126 40.8339ZM42.48 40.9805H44.16V40.5395H42.48V40.9805ZM44.16 40.9805C44.4412 40.9805 44.711 40.8687 44.9098 40.6698L44.598 40.358C44.4818 40.4742 44.3243 40.5395 44.16 40.5395V40.9805ZM44.9098 40.6698C45.1087 40.471 45.2205 40.2012 45.2205 39.92H44.7795C44.7795 40.0843 44.7142 40.2418 44.598 40.358L44.9098 40.6698ZM45.2205 39.92V38.24H44.7795V39.92H45.2205ZM45.2205 38.24C45.2205 38.1072 45.1677 37.9799 45.0739 37.8861L44.762 38.1979C44.7732 38.209 44.7795 38.2242 44.7795 38.24H45.2205ZM45.0739 37.8861C44.98 37.7922 44.8527 37.7395 44.72 37.7395V38.1805C44.7357 38.1805 44.7509 38.1867 44.762 38.1979L45.0739 37.8861Z" fill="white" mask="url(#path-5-outside-1)"/>
<path d="M44.16 28.8898H42.48C42.3765 28.8898 42.2772 28.9309 42.204 29.0041C42.1308 29.0772 42.0897 29.1765 42.0897 29.28C42.0897 29.3835 42.1308 29.4828 42.204 29.5559C42.2772 29.6291 42.3765 29.6702 42.48 29.6702H44.16C44.205 29.6702 44.2481 29.6881 44.28 29.72C44.3118 29.7518 44.3297 29.795 44.3297 29.84V31.52C44.3297 31.6235 44.3708 31.7228 44.444 31.7959C44.5172 31.8691 44.6164 31.9102 44.72 31.9102C44.8235 31.9102 44.9227 31.8691 44.9959 31.7959C45.0691 31.7228 45.1102 31.6235 45.1102 31.52V29.84C45.1102 29.588 45.0101 29.3463 44.8319 29.1681C44.6537 28.9899 44.412 28.8898 44.16 28.8898Z" fill="white" stroke="white" stroke-width="0.2205"/>
<path d="M34.1781 31.0943C34.0857 31.0943 33.9971 31.131 33.9318 31.1963C33.8665 31.2616 33.8298 31.3502 33.8298 31.4426V35.7266C33.8298 35.819 33.8665 35.9075 33.9318 35.9729C33.9971 36.0382 34.0857 36.0749 34.1781 36.0749C34.2704 36.0749 34.359 36.0382 34.4243 35.9729C34.4896 35.9075 34.5263 35.819 34.5263 35.7266V31.4426C34.5263 31.3502 34.4896 31.2616 34.4243 31.1963C34.359 31.131 34.2704 31.0943 34.1781 31.0943Z" fill="white" stroke="white" stroke-width="0.2205"/>
<path d="M34.1781 36.3307C34.0857 36.3307 33.9971 36.3674 33.9318 36.4327C33.8665 36.498 33.8298 36.5866 33.8298 36.6789V38.1069C33.8298 38.1993 33.8665 38.2879 33.9318 38.3532C33.9971 38.4185 34.0857 38.4552 34.1781 38.4552C34.2704 38.4552 34.359 38.4185 34.4243 38.3532C34.4896 38.2879 34.5263 38.1993 34.5263 38.1069V36.6789C34.5263 36.5866 34.4896 36.498 34.4243 36.4327C34.359 36.3674 34.2704 36.3307 34.1781 36.3307Z" fill="white" stroke="white" stroke-width="0.2205"/>
<path d="M38.8901 31.0943C38.7977 31.0943 38.7092 31.131 38.6438 31.1963C38.5785 31.2616 38.5418 31.3502 38.5418 31.4426V38.1066C38.5418 38.199 38.5785 38.2875 38.6438 38.3529C38.7092 38.4182 38.7977 38.4549 38.8901 38.4549C38.9825 38.4549 39.071 38.4182 39.1364 38.3529C39.2017 38.2875 39.2384 38.199 39.2384 38.1066V31.4426C39.2384 31.3502 39.2017 31.2616 39.1364 31.1963C39.071 31.131 38.9825 31.0943 38.8901 31.0943Z" fill="white" stroke="white" stroke-width="0.2205"/>
<path d="M37.0339 31.0943C36.9415 31.0943 36.853 31.131 36.7876 31.1963C36.7223 31.2616 36.6856 31.3502 36.6856 31.4426V32.8706C36.6856 32.963 36.7223 33.0515 36.7876 33.1168C36.853 33.1822 36.9415 33.2188 37.0339 33.2188C37.1263 33.2188 37.2148 33.1822 37.2801 33.1168C37.3455 33.0515 37.3821 32.963 37.3821 32.8706V31.4426C37.3821 31.3502 37.3455 31.2616 37.2801 31.1963C37.2148 31.131 37.1263 31.0943 37.0339 31.0943Z" fill="white" stroke="white" stroke-width="0.2205"/>
<path d="M37.0339 33.4747C36.9415 33.4747 36.853 33.5114 36.7876 33.5767C36.7223 33.642 36.6856 33.7306 36.6856 33.823V38.107C36.6856 38.1993 36.7223 38.2879 36.7876 38.3532C36.853 38.4185 36.9415 38.4552 37.0339 38.4552C37.1263 38.4552 37.2148 38.4185 37.2801 38.3532C37.3455 38.2879 37.3821 38.1993 37.3821 38.107V33.823C37.3821 33.7306 37.3455 33.642 37.2801 33.5767C37.2148 33.5114 37.1263 33.4747 37.0339 33.4747Z" fill="white" stroke="white" stroke-width="0.2205"/>
<path d="M41.318 34.6468C41.4103 34.6468 41.4989 34.6102 41.5642 34.5448C41.6295 34.4795 41.6662 34.391 41.6662 34.2986V31.4426C41.6662 31.3502 41.6295 31.2616 41.5642 31.1963C41.4989 31.131 41.4103 31.0943 41.318 31.0943C41.2256 31.0943 41.137 31.131 41.0717 31.1963C41.0064 31.2616 40.9697 31.3502 40.9697 31.4426V34.2986C40.9697 34.391 41.0064 34.4795 41.0717 34.5448C41.137 34.6102 41.2256 34.6468 41.318 34.6468Z" fill="white" stroke="white" stroke-width="0.2205"/>
<path d="M41.6662 38.1072V35.2512C41.6662 35.1588 41.6295 35.0702 41.5642 35.0049C41.4989 34.9396 41.4103 34.9029 41.318 34.9029C41.2256 34.9029 41.137 34.9396 41.0717 35.0049C41.0064 35.0702 40.9697 35.1588 40.9697 35.2512V38.1072C40.9697 38.1996 41.0064 38.2881 41.0717 38.3534C41.137 38.4188 41.2256 38.4554 41.318 38.4554C41.4103 38.4554 41.4989 38.4188 41.5642 38.3534C41.6295 38.2881 41.6662 38.1996 41.6662 38.1072Z" fill="white" stroke="white" stroke-width="0.2205"/>
</svg>
