<svg width="18" height="18" viewBox="0 0 18 18" fill="none" xmlns="http://www.w3.org/2000/svg">
<path d="M8.04608 0.9C4.10575 0.9 0.9 4.10571 0.9 8.046C0.9 11.9865 4.10575 15.192 8.04608 15.192C11.9866 15.192 15.1922 11.9865 15.1922 8.046C15.1922 4.10571 11.9866 0.9 8.04608 0.9ZM8.04608 13.6912C4.93339 13.6912 2.40082 11.1587 2.40082 8.04603C2.40082 4.93338 4.93339 2.4008 8.04608 2.4008C11.1588 2.4008 13.6913 4.93335 13.6913 8.046C13.6913 11.1586 11.1588 13.6912 8.04608 13.6912Z" fill="white" stroke="white" stroke-width="0.2"/>
<path d="M13.1512 12.0901L16.8802 15.819C16.8802 15.819 16.8802 15.819 16.8802 15.819C17.1733 16.112 17.1733 16.5872 16.8802 16.8801L13.1512 12.0901ZM13.1512 12.0901C12.858 11.7969 12.3833 11.7969 12.0901 12.09L13.1512 12.0901ZM12.0901 12.0901C11.7969 12.383 11.7969 12.8582 12.0901 13.1512C12.0901 13.1512 12.0901 13.1512 12.0901 13.1512L15.8191 16.8801C15.9656 17.0267 16.1577 17.1 16.3496 17.1C16.5414 17.1 16.7336 17.0267 16.8802 16.8802L12.0901 12.0901Z" fill="white" stroke="white" stroke-width="0.2"/>
</svg>
