<svg width="40" height="40" viewBox="0 0 40 40" fill="none" xmlns="http://www.w3.org/2000/svg">
<path d="M20 0C8.95431 0 0 8.95431 0 20C0 31.0457 8.95431 40 20 40C31.0457 40 40 31.0457 40 20C39.9883 8.95925 31.0408 0.0118025 20 0ZM20 37.1429C10.5322 37.1429 2.85712 29.4678 2.85712 20C2.85712 10.5322 10.5322 2.85712 20 2.85712C29.4678 2.85712 37.1429 10.5322 37.1429 20C37.1327 29.4636 29.4636 37.1327 20 37.1429Z" fill="#00A3FF"/>
<path d="M30.975 11.8468C30.4213 11.3121 29.5437 11.3121 28.9902 11.8468L15.7144 25.1225L11.01 20.4182C10.4619 19.8507 9.55751 19.835 8.99007 20.3831C8.42254 20.9312 8.40689 21.8357 8.955 22.4031C8.96646 22.415 8.97818 22.4267 8.99007 22.4382L14.7044 28.1525C15.2622 28.7102 16.1666 28.7102 16.7244 28.1525L31.0101 13.8667C31.5582 13.2993 31.5425 12.3949 30.975 11.8468Z" fill="#00A3FF"/>
</svg>
