<svg width="60" height="60" viewBox="0 0 60 60" fill="none" xmlns="http://www.w3.org/2000/svg">
<path d="M0 30C0 13.4315 13.4315 0 30 0C46.5685 0 60 13.4315 60 30C60 46.5685 46.5685 60 30 60C13.4315 60 0 46.5685 0 30Z" fill="#00A3FF"/>
<path d="M30.4112 27.6524C30.5623 27.4025 30.8331 27.2499 31.1251 27.2499H49.5412C49.3386 34.472 43.4204 40.2645 36.1492 40.2645H29.1666C26.3633 40.2645 24.6361 37.2013 26.0868 34.8026L30.4112 27.6524Z" stroke="white" stroke-width="5.00562"/>
<path d="M28.6708 14.2463C33.7283 19.2855 34.2177 26.9457 30.2869 32.2064L26.5462 29.075C29.0189 25.7428 28.4765 20.8358 25.2792 17.6502C24.2557 16.6304 24.1853 15.0418 25.1219 14.1018C26.0584 13.1619 27.6473 13.2266 28.6708 14.2463Z" fill="white"/>
<rect x="8" y="27.2437" width="3.33708" height="16.6854" rx="1.66854" transform="rotate(-90 8 27.2437)" fill="url(#paint0_linear)"/>
<rect x="11.0034" y="32.249" width="3.33708" height="10.0112" rx="1.66854" transform="rotate(-90 11.0034 32.249)" fill="url(#paint1_linear)"/>
<rect x="11.3371" y="22.2378" width="3.33708" height="13.3483" rx="1.66854" transform="rotate(-90 11.3371 22.2378)" fill="url(#paint2_linear)"/>
<path d="M31.3596 44.7635C31.3596 45.136 31.2862 45.5048 31.1436 45.849C31.0011 46.1931 30.7922 46.5058 30.5288 46.7692C30.2654 47.0326 29.9527 47.2415 29.6085 47.3841C29.2644 47.5266 28.8955 47.6 28.523 47.6C28.1505 47.6 27.7817 47.5266 27.4376 47.3841C27.0934 47.2415 26.7807 47.0326 26.5173 46.7692C26.2539 46.5058 26.045 46.1931 25.9024 45.849C25.7599 45.5048 25.6865 44.3017 25.6865 43.9292L28.523 43.9292L31.3596 43.9292V44.7635Z" fill="white"/>
<path d="M39.3685 44.7635C39.3685 45.136 39.2952 45.5048 39.1526 45.849C39.0101 46.1931 38.8011 46.5058 38.5377 46.7692C38.2743 47.0326 37.9616 47.2415 37.6175 47.3841C37.2734 47.5266 36.9045 47.6 36.532 47.6C36.1595 47.6 35.7907 47.5266 35.4465 47.3841C35.1024 47.2415 34.7897 47.0326 34.5263 46.7692C34.2629 46.5058 34.054 46.1931 33.9114 45.849C33.7689 45.5048 33.6955 44.3017 33.6955 43.9292L36.532 43.9292L39.3685 43.9292V44.7635Z" fill="white"/>
<defs>
<linearGradient id="paint0_linear" x1="9.66854" y1="27.2437" x2="9.66854" y2="43.9291" gradientUnits="userSpaceOnUse">
<stop stop-color="#00A3FF" stop-opacity="0"/>
<stop offset="1" stop-color="white"/>
</linearGradient>
<linearGradient id="paint1_linear" x1="12.6719" y1="32.249" x2="12.6719" y2="42.2603" gradientUnits="userSpaceOnUse">
<stop stop-color="#00A3FF" stop-opacity="0"/>
<stop offset="1" stop-color="white"/>
</linearGradient>
<linearGradient id="paint2_linear" x1="13.0056" y1="22.2378" x2="13.0056" y2="35.5861" gradientUnits="userSpaceOnUse">
<stop stop-color="#00A3FF" stop-opacity="0"/>
<stop offset="1" stop-color="white"/>
</linearGradient>
</defs>
</svg>
