<svg width="60" height="60" viewBox="0 0 60 60" fill="none" xmlns="http://www.w3.org/2000/svg">
<path d="M32.3917 19.4494V19.4673H32.4097C35.3015 19.4673 37.6458 21.8116 37.6458 24.7034C37.6458 25.419 37.0658 25.999 36.3502 25.999C35.6347 25.999 35.0546 25.419 35.0546 24.7034C35.0546 23.2427 33.8704 22.0585 32.4097 22.0585H29.7826C28.3219 22.0585 27.1377 23.2427 27.1377 24.7034V26.017C27.1377 27.4778 28.3219 28.662 29.7826 28.662H32.4097C35.3015 28.662 37.6458 31.0062 37.6458 33.8979V35.2115C37.6458 38.1033 35.3015 40.4476 32.4097 40.4476H32.3917V40.4656V41.7791C32.3917 42.4947 31.8117 43.0748 31.0962 43.0748C30.3806 43.0748 29.8006 42.4947 29.8006 41.7792V40.4657V40.4477H29.7826C26.8908 40.4477 24.5465 38.1034 24.5465 35.2116C24.5465 34.496 25.1265 33.916 25.8421 33.916C26.5576 33.916 27.1377 34.496 27.1377 35.2116C27.1377 36.6723 28.3219 37.8565 29.7826 37.8565H32.4097C33.8704 37.8565 35.0546 36.6723 35.0546 35.2116V33.8981C35.0546 32.4373 33.8704 31.2531 32.4097 31.2531H29.7826C26.8907 31.2531 24.5464 28.9088 24.5464 26.017V24.7034C24.5464 21.8116 26.8907 19.4673 29.7826 19.4673H29.8005V19.4494V18.1358C29.8005 17.4203 30.3806 16.8402 31.0961 16.8402C31.8117 16.8402 32.3917 17.4203 32.3917 18.1358V19.4494Z" fill="#C8CED5" stroke="white" stroke-width="0.0359168"/>
<path d="M12.1263 21.6583C13.8831 17.894 16.7837 14.7804 20.4143 12.7616C24.0448 10.7428 28.2202 9.92182 32.3448 10.4157C36.4695 10.9095 40.333 12.693 43.3843 15.5119C46.4357 18.3307 48.5192 22.041 49.3377 26.1137" stroke="#C8CED5" stroke-width="3"/>
<path d="M51.3344 29.389L51.3259 29.4102C51.081 30.017 50.391 30.3102 49.7843 30.0653L49.7631 30.0568L49.744 30.0441L42.6581 25.3413C42.3661 25.2166 42.1489 24.9873 42.0334 24.7154C41.915 24.4368 41.9029 24.1122 42.0253 23.8089L51.3344 29.389ZM51.3344 29.389L51.3386 29.3665M51.3344 29.389L51.3386 29.3665M51.3386 29.3665L52.8719 21.0014M51.3386 29.3665L52.8719 21.0014M49.8125 25.339L50.6531 20.1853L50.6571 20.1606L50.6665 20.1373C50.9113 19.5305 51.6013 19.2373 52.2081 19.4822L49.8125 25.339ZM49.8125 25.339C49.4842 25.0825 49.0303 25.0076 48.6194 25.1822C48.2085 25.3568 47.9473 25.7356 47.904 26.1499L43.6108 23.1776L43.5902 23.1633L43.5669 23.1539C42.9601 22.909 42.2701 23.2021 42.0253 23.8089L49.8125 25.339ZM52.8719 21.0014C53.1008 20.4001 52.8074 19.7241 52.2081 19.4822L52.8719 21.0014Z" fill="#C8CED5" stroke="#C8CED5" stroke-width="0.450863"/>
<path d="M47.8735 38.3417C46.1166 42.106 43.2161 45.2196 39.5855 47.2384C35.9549 49.2572 31.7796 50.0782 27.6549 49.5843C23.5303 49.0905 19.6668 47.307 16.6154 44.4881C13.5641 41.6693 11.4806 37.959 10.662 33.8863" stroke="#C8CED5" stroke-width="3"/>
<path d="M8.66518 30.611L8.67375 30.5898C8.91865 29.983 9.6086 29.6898 10.2153 29.9347L10.2365 29.9432L10.2556 29.9559L17.3415 34.6587C17.6336 34.7834 17.8507 35.0127 17.9662 35.2846C18.0846 35.5632 18.0968 35.8878 17.9744 36.1911L8.66518 30.611ZM8.66518 30.611L8.66106 30.6335M8.66518 30.611L8.66106 30.6335M8.66106 30.6335L7.12773 38.9986M8.66106 30.6335L7.12773 38.9986M10.1871 34.661L9.34658 39.8147L9.34253 39.8394L9.33314 39.8627C9.08832 40.4695 8.39835 40.7627 7.79156 40.5178L10.1871 34.661ZM10.1871 34.661C10.5154 34.9175 10.9693 34.9924 11.3803 34.8178C11.7912 34.6432 12.0523 34.2644 12.0956 33.8501L16.3888 36.8224L16.4095 36.8367L16.4328 36.8461C17.0396 37.091 17.7295 36.7979 17.9744 36.1911L10.1871 34.661ZM7.12773 38.9986C6.89885 39.5999 7.19219 40.2759 7.79154 40.5178L7.12773 38.9986Z" fill="#C8CED5" stroke="#C8CED5" stroke-width="0.450863"/>
</svg>
