<svg width="15" height="17" viewBox="0 0 15 17" fill="none" xmlns="http://www.w3.org/2000/svg">
<path d="M7.38658 8.18892C8.57639 8.18892 9.60667 7.78542 10.4485 6.98933C11.2903 6.19337 11.717 5.21946 11.717 4.09433C11.717 2.96958 11.2903 1.99554 10.4483 1.19932C9.60639 0.403493 8.57625 0 7.38658 0C6.19664 0 5.16664 0.403493 4.32483 1.19945C3.48302 1.99541 3.05615 2.96945 3.05615 4.09433C3.05615 5.21946 3.48302 6.1935 4.32497 6.98946C5.16691 7.78529 6.19705 8.18892 7.38658 8.18892Z" fill="#C8CED5"/>
<path d="M14.9636 13.0719C14.9394 12.7406 14.8903 12.3793 14.818 11.9977C14.745 11.6133 14.651 11.2499 14.5386 10.9177C14.4224 10.5744 14.2644 10.2354 14.069 9.91048C13.8663 9.57326 13.6282 9.27962 13.361 9.038C13.0816 8.78521 12.7395 8.58197 12.3439 8.43373C11.9496 8.28626 11.5127 8.21156 11.0454 8.21156C10.8619 8.21156 10.6844 8.28276 10.3416 8.49378C10.1306 8.62387 9.88386 8.77432 9.60843 8.94072C9.37291 9.08261 9.05385 9.21555 8.65977 9.33591C8.27528 9.45355 7.8849 9.51321 7.49959 9.51321C7.11428 9.51321 6.72403 9.45355 6.33914 9.33591C5.94546 9.21568 5.62641 9.08274 5.39116 8.94085C5.11833 8.776 4.87143 8.62555 4.65731 8.49365C4.31493 8.28263 4.1373 8.21143 3.95376 8.21143C3.48629 8.21143 3.04955 8.28626 2.65546 8.43386C2.26014 8.58185 1.9179 8.78508 1.63821 9.03813C1.37114 9.27988 1.13288 9.57339 0.930419 9.91048C0.735227 10.2354 0.577208 10.5743 0.460888 10.9178C0.348547 11.25 0.254586 11.6133 0.181612 11.9977C0.109324 12.3788 0.0602173 12.7402 0.0359383 13.0723C0.0120709 13.3976 0 13.7352 0 14.0761C0 14.9635 0.298343 15.6819 0.886662 16.2118C1.46771 16.7346 2.23654 16.9998 3.17149 16.9998H11.8285C12.7635 16.9998 13.532 16.7347 14.1132 16.2118C14.7017 15.6823 15 14.9638 15 14.076C14.9999 13.7335 14.9877 13.3956 14.9636 13.0719Z" fill="#C8CED5"/>
</svg>
