<svg width="26" height="24" viewBox="0 0 26 24" fill="none" xmlns="http://www.w3.org/2000/svg">
<rect x="8.94481" y="5.3667" width="7.75216" height="16.5976" fill="white"/>
<path d="M24.9266 18.3907L15.9288 1.82603C15.2497 0.682787 14.0503 0 12.7205 0C11.3907 0 10.1913 0.682787 9.51222 1.82603C9.5071 1.83478 9.50278 1.84352 9.49766 1.85227L0.529802 18.3645C-0.163868 19.5319 -0.176987 20.9338 0.494072 22.1142C1.16667 23.2954 2.37839 24 3.73736 24H21.654C23.013 24 24.2745 23.2954 24.947 22.1142C25.6181 20.9338 25.605 19.5318 24.9266 18.3907ZM11.2282 7.58465C11.2282 6.76043 11.8964 6.09236 12.7205 6.09236C13.5447 6.09236 14.2128 6.76048 14.2128 7.58465V13.5539C14.2128 14.378 13.5447 15.0462 12.7205 15.0462C11.8964 15.0462 11.2282 14.3779 11.2282 13.5539V7.58465ZM12.7205 21.0154C11.4862 21.0154 10.482 20.0113 10.482 18.7769C10.482 17.5426 11.4861 16.5385 12.7205 16.5385C13.9549 16.5385 14.959 17.5426 14.959 18.7769C14.959 20.0113 13.9549 21.0154 12.7205 21.0154Z" fill="#00A3FF"/>
</svg>
