<svg width="73" height="45" viewBox="0 0 73 45" fill="none" xmlns="http://www.w3.org/2000/svg">
<path d="M9.2547 12H1.70553C1.31588 12 1 12.3159 1 12.7055V20M58.7829 12H66.332C66.7217 12 67.0376 12.3159 67.0376 12.7055V20M9.2547 44H1.70553C1.31588 44 1 43.6841 1 43.2945V36M58.7829 44H66.332C66.7217 44 67.0376 43.6841 67.0376 43.2945V36" stroke="#00A3FF"/>
<rect x="1" y="26.6821" width="66.0376" height="1.12941" rx="0.564706" fill="#00A3FF"/>
<circle cx="60.0013" cy="12.0013" r="12.0013" fill="#00A3FF"/>
<rect x="53.1619" y="11.251" width="14.0519" height="1.5942" rx="0.797102" fill="white"/>
<rect x="59.5073" y="18.9575" width="14.0519" height="1.5942" rx="0.797102" transform="rotate(-90 59.5073 18.9575)" fill="white"/>
</svg>
