<svg width="65" height="42" viewBox="0 0 65 42" fill="none" xmlns="http://www.w3.org/2000/svg">
<path d="M9.7121 12C9.45962 12 9.21747 12.1047 9.03894 12.291C8.8604 12.4774 8.7601 12.7301 8.7601 12.9936V30.8784C8.7601 31.1419 8.8604 31.3946 9.03894 31.581C9.21747 31.7673 9.45962 31.872 9.7121 31.872C9.96459 31.872 10.2067 31.7673 10.3853 31.581C10.5638 31.3946 10.6641 31.1419 10.6641 30.8784V12.9936C10.6641 12.7301 10.5638 12.4774 10.3853 12.291C10.2067 12.1047 9.96459 12 9.7121 12Z" fill="#00A3FF"/>
<path d="M9.7121 12C9.45962 12 9.21747 12.1047 9.03894 12.291C8.8604 12.4774 8.7601 12.7301 8.7601 12.9936V30.8784C8.7601 31.1419 8.8604 31.3946 9.03894 31.581C9.21747 31.7673 9.45962 31.872 9.7121 31.872C9.96459 31.872 10.2067 31.7673 10.3853 31.581C10.5638 31.3946 10.6641 31.1419 10.6641 30.8784V12.9936C10.6641 12.7301 10.5638 12.4774 10.3853 12.291C10.2067 12.1047 9.96459 12 9.7121 12Z" stroke="#00A3FF"/>
<path d="M9.7121 33.8604C9.45962 33.8604 9.21747 33.965 9.03894 34.1514C8.8604 34.3377 8.7601 34.5904 8.7601 34.854V40.8155C8.7601 41.0791 8.8604 41.3318 9.03894 41.5181C9.21747 41.7045 9.45962 41.8091 9.7121 41.8091C9.96459 41.8091 10.2067 41.7045 10.3853 41.5181C10.5638 41.3318 10.6641 41.0791 10.6641 40.8155V34.854C10.6641 34.5904 10.5638 34.3377 10.3853 34.1514C10.2067 33.965 9.96459 33.8604 9.7121 33.8604Z" fill="#00A3FF"/>
<path d="M9.7121 33.8604C9.45962 33.8604 9.21747 33.965 9.03894 34.1514C8.8604 34.3377 8.7601 34.5904 8.7601 34.854V40.8155C8.7601 41.0791 8.8604 41.3318 9.03894 41.5181C9.21747 41.7045 9.45962 41.8091 9.7121 41.8091C9.96459 41.8091 10.2067 41.7045 10.3853 41.5181C10.5638 41.3318 10.6641 41.0791 10.6641 40.8155V34.854C10.6641 34.5904 10.5638 34.3377 10.3853 34.1514C10.2067 33.965 9.96459 33.8604 9.7121 33.8604Z" stroke="#00A3FF"/>
<path d="M51.952 27.1895C51.6995 27.1895 51.4574 27.2941 51.2788 27.4805C51.1003 27.6668 51 27.9195 51 28.1831V31.0678C51 31.3314 51.1003 31.5841 51.2788 31.7704C51.4574 31.9568 51.6995 32.0614 51.952 32.0614C52.2045 32.0614 52.4466 31.9568 52.6252 31.7704C52.8037 31.5841 52.904 31.3314 52.904 31.0678V28.1831C52.904 27.9195 52.8037 27.6668 52.6252 27.4805C52.4466 27.2941 52.2045 27.1895 51.952 27.1895Z" fill="#00A3FF"/>
<path d="M51.952 27.1895C51.6995 27.1895 51.4574 27.2941 51.2788 27.4805C51.1003 27.6668 51 27.9195 51 28.1831V31.0678C51 31.3314 51.1003 31.5841 51.2788 31.7704C51.4574 31.9568 51.6995 32.0614 51.952 32.0614C52.2045 32.0614 52.4466 31.9568 52.6252 31.7704C52.8037 31.5841 52.904 31.3314 52.904 31.0678V28.1831C52.904 27.9195 52.8037 27.6668 52.6252 27.4805C52.4466 27.2941 52.2045 27.1895 51.952 27.1895Z" stroke="#00A3FF"/>
<path d="M51.952 34.0498C51.6995 34.0498 51.4574 34.1545 51.2788 34.3408C51.1003 34.5272 51 34.7799 51 35.0434V41.005C51 41.2685 51.1003 41.5212 51.2788 41.7076C51.4574 41.8939 51.6995 41.9986 51.952 41.9986C52.2045 41.9986 52.4466 41.8939 52.6252 41.7076C52.8037 41.5212 52.904 41.2685 52.904 41.005V35.0434C52.904 34.7799 52.8037 34.5272 52.6252 34.3408C52.4466 34.1545 52.2045 34.0498 51.952 34.0498Z" fill="#00A3FF"/>
<path d="M51.952 34.0498C51.6995 34.0498 51.4574 34.1545 51.2788 34.3408C51.1003 34.5272 51 34.7799 51 35.0434V41.005C51 41.2685 51.1003 41.5212 51.2788 41.7076C51.4574 41.8939 51.6995 41.9986 51.952 41.9986C52.2045 41.9986 52.4466 41.8939 52.6252 41.7076C52.8037 41.5212 52.904 41.2685 52.904 41.005V35.0434C52.904 34.7799 52.8037 34.5272 52.6252 34.3408C52.4466 34.1545 52.2045 34.0498 51.952 34.0498Z" stroke="#00A3FF"/>
<path d="M26.5602 12C26.3077 12 26.0655 12.1047 25.887 12.291C25.7085 12.4774 25.6082 12.7301 25.6082 12.9936V40.8144C25.6082 41.0779 25.7085 41.3306 25.887 41.517C26.0655 41.7033 26.3077 41.808 26.5602 41.808C26.8126 41.808 27.0548 41.7033 27.2333 41.517C27.4119 41.3306 27.5122 41.0779 27.5122 40.8144V12.9936C27.5122 12.7301 27.4119 12.4774 27.2333 12.291C27.0548 12.1047 26.8126 12 26.5602 12Z" fill="#00A3FF"/>
<path d="M26.5602 12C26.3077 12 26.0655 12.1047 25.887 12.291C25.7085 12.4774 25.6082 12.7301 25.6082 12.9936V40.8144C25.6082 41.0779 25.7085 41.3306 25.887 41.517C26.0655 41.7033 26.3077 41.808 26.5602 41.808C26.8126 41.808 27.0548 41.7033 27.2333 41.517C27.4119 41.3306 27.5122 41.0779 27.5122 40.8144V12.9936C27.5122 12.7301 27.4119 12.4774 27.2333 12.291C27.0548 12.1047 26.8126 12 26.5602 12Z" stroke="#00A3FF"/>
<path d="M42.952 23.1895C42.6995 23.1895 42.4574 23.2941 42.2788 23.4805C42.1003 23.6668 42 23.9195 42 24.1831V41.0038C42 41.2673 42.1003 41.5201 42.2788 41.7064C42.4574 41.8927 42.6995 41.9974 42.952 41.9974C43.2045 41.9974 43.4466 41.8927 43.6252 41.7064C43.8037 41.5201 43.904 41.2673 43.904 41.0038V24.1831C43.904 23.9195 43.8037 23.6668 43.6252 23.4805C43.4466 23.2941 43.2045 23.1895 42.952 23.1895Z" fill="#00A3FF"/>
<path d="M42.952 23.1895C42.6995 23.1895 42.4574 23.2941 42.2788 23.4805C42.1003 23.6668 42 23.9195 42 24.1831V41.0038C42 41.2673 42.1003 41.5201 42.2788 41.7064C42.4574 41.8927 42.6995 41.9974 42.952 41.9974C43.2045 41.9974 43.4466 41.8927 43.6252 41.7064C43.8037 41.5201 43.904 41.2673 43.904 41.0038V24.1831C43.904 23.9195 43.8037 23.6668 43.6252 23.4805C43.4466 23.2941 43.2045 23.1895 42.952 23.1895Z" stroke="#00A3FF"/>
<path d="M18.1358 12C17.8834 12 17.6412 12.1047 17.4627 12.291C17.2841 12.4774 17.1838 12.7301 17.1838 12.9936V18.9552C17.1838 19.2187 17.2841 19.4714 17.4627 19.6578C17.6412 19.8441 17.8834 19.9488 18.1358 19.9488C18.3883 19.9488 18.6305 19.8441 18.809 19.6578C18.9875 19.4714 19.0878 19.2187 19.0878 18.9552V12.9936C19.0878 12.7301 18.9875 12.4774 18.809 12.291C18.6305 12.1047 18.3883 12 18.1358 12Z" fill="#00A3FF"/>
<path d="M18.1358 12C17.8834 12 17.6412 12.1047 17.4627 12.291C17.2841 12.4774 17.1838 12.7301 17.1838 12.9936V18.9552C17.1838 19.2187 17.2841 19.4714 17.4627 19.6578C17.6412 19.8441 17.8834 19.9488 18.1358 19.9488C18.3883 19.9488 18.6305 19.8441 18.809 19.6578C18.9875 19.4714 19.0878 19.2187 19.0878 18.9552V12.9936C19.0878 12.7301 18.9875 12.4774 18.809 12.291C18.6305 12.1047 18.3883 12 18.1358 12Z" stroke="#00A3FF"/>
<path d="M18.1358 21.9375C17.8834 21.9375 17.6412 22.0422 17.4627 22.2285C17.2841 22.4149 17.1838 22.6676 17.1838 22.9311V40.8159C17.1838 41.0794 17.2841 41.3321 17.4627 41.5185C17.6412 41.7048 17.8834 41.8095 18.1358 41.8095C18.3883 41.8095 18.6305 41.7048 18.809 41.5185C18.9875 41.3321 19.0878 41.0794 19.0878 40.8159V22.9311C19.0878 22.6676 18.9875 22.4149 18.809 22.2285C18.6305 22.0422 18.3883 21.9375 18.1358 21.9375Z" fill="#00A3FF"/>
<path d="M18.1358 21.9375C17.8834 21.9375 17.6412 22.0422 17.4627 22.2285C17.2841 22.4149 17.1838 22.6676 17.1838 22.9311V40.8159C17.1838 41.0794 17.2841 41.3321 17.4627 41.5185C17.6412 41.7048 17.8834 41.8095 18.1358 41.8095C18.3883 41.8095 18.6305 41.7048 18.809 41.5185C18.9875 41.3321 19.0878 41.0794 19.0878 40.8159V22.9311C19.0878 22.6676 18.9875 22.4149 18.809 22.2285C18.6305 22.0422 18.3883 21.9375 18.1358 21.9375Z" stroke="#00A3FF"/>
<path d="M34.2719 25.9104C34.5244 25.9104 34.7666 25.8057 34.9451 25.6194C35.1236 25.433 35.2239 25.1803 35.2239 24.9168V12.9936C35.2239 12.7301 35.1236 12.4774 34.9451 12.291C34.7666 12.1047 34.5244 12 34.2719 12C34.0194 12 33.7773 12.1047 33.5987 12.291C33.4202 12.4774 33.3199 12.7301 33.3199 12.9936V24.9168C33.3199 25.1803 33.4202 25.433 33.5987 25.6194C33.7773 25.8057 34.0194 25.9104 34.2719 25.9104Z" fill="#00A3FF"/>
<path d="M34.2719 25.9104C34.5244 25.9104 34.7666 25.8057 34.9451 25.6194C35.1236 25.433 35.2239 25.1803 35.2239 24.9168V12.9936C35.2239 12.7301 35.1236 12.4774 34.9451 12.291C34.7666 12.1047 34.5244 12 34.2719 12C34.0194 12 33.7773 12.1047 33.5987 12.291C33.4202 12.4774 33.3199 12.7301 33.3199 12.9936V24.9168C33.3199 25.1803 33.4202 25.433 33.5987 25.6194C33.7773 25.8057 34.0194 25.9104 34.2719 25.9104Z" stroke="#00A3FF"/>
<path d="M35.2239 40.8167V28.8935C35.2239 28.63 35.1236 28.3773 34.9451 28.1909C34.7666 28.0046 34.5244 27.8999 34.2719 27.8999C34.0194 27.8999 33.7773 28.0046 33.5987 28.1909C33.4202 28.3773 33.3199 28.63 33.3199 28.8935V40.8167C33.3199 41.0802 33.4202 41.3329 33.5987 41.5193C33.7773 41.7056 34.0194 41.8103 34.2719 41.8103C34.5244 41.8103 34.7666 41.7056 34.9451 41.5193C35.1236 41.3329 35.2239 41.0802 35.2239 40.8167Z" fill="#00A3FF"/>
<path d="M35.2239 40.8167V28.8935C35.2239 28.63 35.1236 28.3773 34.9451 28.1909C34.7666 28.0046 34.5244 27.8999 34.2719 27.8999C34.0194 27.8999 33.7773 28.0046 33.5987 28.1909C33.4202 28.3773 33.3199 28.63 33.3199 28.8935V40.8167C33.3199 41.0802 33.4202 41.3329 33.5987 41.5193C33.7773 41.7056 34.0194 41.8103 34.2719 41.8103C34.5244 41.8103 34.7666 41.7056 34.9451 41.5193C35.1236 41.3329 35.2239 41.0802 35.2239 40.8167Z" stroke="#00A3FF"/>
<path d="M0.952002 26.0998C1.20449 26.0998 1.44663 25.9952 1.62517 25.8088C1.8037 25.6225 1.904 25.3698 1.904 25.1062V13.1831C1.904 12.9195 1.8037 12.6668 1.62517 12.4805C1.44663 12.2941 1.20449 12.1895 0.952002 12.1895C0.699515 12.1895 0.457369 12.2941 0.278834 12.4805C0.100299 12.6668 0 12.9195 0 13.1831V25.1062C0 25.3698 0.100299 25.6225 0.278834 25.8088C0.457369 25.9952 0.699515 26.0998 0.952002 26.0998Z" fill="#00A3FF"/>
<path d="M0.952002 26.0998C1.20449 26.0998 1.44663 25.9952 1.62517 25.8088C1.8037 25.6225 1.904 25.3698 1.904 25.1062V13.1831C1.904 12.9195 1.8037 12.6668 1.62517 12.4805C1.44663 12.2941 1.20449 12.1895 0.952002 12.1895C0.699515 12.1895 0.457369 12.2941 0.278834 12.4805C0.100299 12.6668 0 12.9195 0 13.1831V25.1062C0 25.3698 0.100299 25.6225 0.278834 25.8088C0.457369 25.9952 0.699515 26.0998 0.952002 26.0998Z" stroke="#00A3FF"/>
<path d="M1.904 41.0061V29.083C1.904 28.8194 1.8037 28.5667 1.62517 28.3804C1.44663 28.194 1.20449 28.0894 0.952002 28.0894C0.699515 28.0894 0.457369 28.194 0.278834 28.3804C0.100299 28.5667 0 28.8194 0 29.083V41.0061C0 41.2697 0.100299 41.5224 0.278834 41.7087C0.457369 41.8951 0.699515 41.9997 0.952002 41.9997C1.20449 41.9997 1.44663 41.8951 1.62517 41.7087C1.8037 41.5224 1.904 41.2697 1.904 41.0061Z" fill="#00A3FF"/>
<path d="M1.904 41.0061V29.083C1.904 28.8194 1.8037 28.5667 1.62517 28.3804C1.44663 28.194 1.20449 28.0894 0.952002 28.0894C0.699515 28.0894 0.457369 28.194 0.278834 28.3804C0.100299 28.5667 0 28.8194 0 29.083V41.0061C0 41.2697 0.100299 41.5224 0.278834 41.7087C0.457369 41.8951 0.699515 41.9997 0.952002 41.9997C1.20449 41.9997 1.44663 41.8951 1.62517 41.7087C1.8037 41.5224 1.904 41.2697 1.904 41.0061Z" stroke="#00A3FF"/>
<circle cx="52.0013" cy="12.0013" r="12.0013" fill="#00A3FF"/>
<rect x="45.1619" y="11.251" width="14.0519" height="1.5942" rx="0.797102" fill="white"/>
<rect x="51.5073" y="18.9575" width="14.0519" height="1.5942" rx="0.797102" transform="rotate(-90 51.5073 18.9575)" fill="white"/>
</svg>
