<svg width="375" height="214" viewBox="0 0 375 214" fill="none" xmlns="http://www.w3.org/2000/svg">
<path d="M0 -1H375V26.5C375 130.053 291.053 214 187.5 214C83.9466 214 0 130.053 0 26.5V-1Z" fill="#00A3FF"/>
<path d="M112 106C112 64.5786 145.579 31 187 31C228.421 31 262 64.5786 262 106C262 147.421 228.421 181 187 181C145.579 181 112 147.421 112 106Z" fill="white"/>
<path d="M188.028 100.132C188.406 99.5069 189.083 99.1252 189.813 99.1252H235.853C235.347 117.181 220.551 131.662 202.373 131.662H184.917C177.908 131.662 173.59 124.004 177.217 118.007L188.028 100.132Z" stroke="#00A3FF" stroke-width="12.514"/>
<path d="M183.677 66.6161C196.321 79.2141 197.544 98.3644 187.717 111.516L178.365 103.688C184.547 95.3573 183.191 83.0898 175.198 75.1257C172.639 72.5762 172.463 68.6047 174.805 66.2548C177.146 63.9049 181.118 64.0666 183.677 66.6161Z" fill="#00A3FF"/>
<rect x="132" y="99.1094" width="8.3427" height="41.7135" rx="4.17135" transform="rotate(-90 132 99.1094)" fill="url(#paint0_linear)"/>
<rect x="139.509" y="111.623" width="8.3427" height="25.0281" rx="4.17135" transform="rotate(-90 139.509 111.623)" fill="url(#paint1_linear)"/>
<rect x="140.343" y="86.5952" width="8.3427" height="33.3708" rx="4.17135" transform="rotate(-90 140.343 86.5952)" fill="url(#paint2_linear)"/>
<path d="M190.399 142.909C190.399 143.84 190.215 144.762 189.859 145.623C189.503 146.483 188.98 147.265 188.322 147.923C187.663 148.582 186.882 149.104 186.021 149.46C185.161 149.817 184.239 150 183.308 150C182.376 150 181.454 149.817 180.594 149.46C179.734 149.104 178.952 148.582 178.293 147.923C177.635 147.265 177.112 146.483 176.756 145.623C176.4 144.762 176.216 141.754 176.216 140.823L183.308 140.823L190.399 140.823V142.909Z" fill="#00A3FF"/>
<path d="M210.421 142.909C210.421 143.84 210.238 144.762 209.882 145.623C209.525 146.483 209.003 147.265 208.344 147.923C207.686 148.582 206.904 149.104 206.044 149.46C205.183 149.817 204.261 150 203.33 150C202.399 150 201.477 149.817 200.616 149.46C199.756 149.104 198.974 148.582 198.316 147.923C197.657 147.265 197.135 146.483 196.779 145.623C196.422 144.762 196.239 141.754 196.239 140.823L203.33 140.823L210.421 140.823V142.909Z" fill="#00A3FF"/>
<defs>
<linearGradient id="paint0_linear" x1="136.171" y1="99.1094" x2="136.171" y2="140.823" gradientUnits="userSpaceOnUse">
<stop stop-color="#00A3FF" stop-opacity="0"/>
<stop offset="1" stop-color="#00A3FF"/>
</linearGradient>
<linearGradient id="paint1_linear" x1="143.68" y1="111.623" x2="143.68" y2="136.651" gradientUnits="userSpaceOnUse">
<stop stop-color="#00A3FF" stop-opacity="0"/>
<stop offset="1" stop-color="#00A3FF"/>
</linearGradient>
<linearGradient id="paint2_linear" x1="144.514" y1="86.5952" x2="144.514" y2="119.966" gradientUnits="userSpaceOnUse">
<stop stop-color="#00A3FF" stop-opacity="0"/>
<stop offset="1" stop-color="#00A3FF"/>
</linearGradient>
</defs>
</svg>
